<?xml version="1.0" encoding="utf-8"?>
<!-- Generator: Adobe Illustrator 26.0.2, SVG Export Plug-In . SVG Version: 6.00 Build 0)  -->
<svg version="1.1" id="svg" xmlns="http://www.w3.org/2000/svg" xmlns:xlink="http://www.w3.org/1999/xlink" x="0px" y="0px"
	 viewBox="0 0 400 285.4" style="enable-background:new 0 0 400 285.4;" xml:space="preserve">
<style type="text/css">
	.st0{fill-rule:evenodd;clip-rule:evenodd;fill:#07AACB;}
	.st1{fill-rule:evenodd;clip-rule:evenodd;fill:#F6F9FA;}
	.st2{fill-rule:evenodd;clip-rule:evenodd;fill:#F58832;}
	.st3{fill-rule:evenodd;clip-rule:evenodd;fill:#048464;}
	.st4{fill-rule:evenodd;clip-rule:evenodd;fill:#197ABF;}
	.st5{fill-rule:evenodd;clip-rule:evenodd;fill:#622E94;}
	.st6{fill-rule:evenodd;clip-rule:evenodd;fill:#5DA0CB;}
	.st7{fill-rule:evenodd;clip-rule:evenodd;fill:#2E9989;}
</style>
<g id="svgg">
	<rect x="98.9" y="62.2" class="st0" width="226.5" height="155.2"/>
	<path id="path0" class="st0" d="M344.7,0.2c-1.3,0.1-2.5,0.3-2.6,0.5C342,1,341,1.1,339.6,1.2c-1.6,0-2.3,0.2-2.2,0.4
		c0.1,0.2-0.7,0.3-2.4,0.4c-1.4,0-2.6,0.2-2.6,0.3c-0.1,0.2-1.1,0.3-2.2,0.3c-1.5,0-2.1,0.2-2.1,0.4c0,0.3-0.6,0.4-2.4,0.4
		c-1.3,0-2.5,0.1-2.6,0.3C323,3.9,322,4,320.9,4c-1.4,0-2.1,0.1-2.4,0.4c-0.3,0.3-1.1,0.4-2.6,0.4c-1.2,0-2.2,0.1-2.2,0.2
		c0,0.1-0.7,0.3-1.5,0.3c-0.8,0-1.8,0.1-2.2,0.2c-0.4,0-0.9,0.1-1.1,0.1c-0.2,0-0.3,0.2-0.2,0.3c0.1,0.2-3.2,0.5-4.2,0.3
		c-0.1,0-0.2,0.2-0.2,0.4c0,0.3-0.5,0.4-2.4,0.4c-1.3,0-2.5,0.1-2.6,0.3c-0.1,0.1-1.1,0.3-2.2,0.3c-1.2,0-2,0.2-2.2,0.4
		c-0.2,0.3-1.1,0.4-2.7,0.4c-1.3,0-2.5,0.1-2.6,0.3c-0.1,0.2-1,0.3-2,0.3c-1.1,0-2,0.2-2.4,0.4c-0.4,0.2-1.4,0.4-2.6,0.5
		c-1.5,0-2,0.2-2,0.4c0,0.3-0.6,0.4-2.4,0.4c-1.4,0-2.4,0.1-2.4,0.3c0,0.2-0.9,0.3-2.1,0.3c-1.5,0-2.2,0.1-2.5,0.4
		c-0.3,0.3-1.2,0.4-2.7,0.5c-1.2,0-2.3,0.2-2.4,0.3c-0.1,0.1-1.1,0.3-2.2,0.3c-1.4,0.1-2.1,0.2-2.2,0.4c-0.1,0.3-0.8,0.4-2.4,0.4
		c-1.7,0-2.3,0.1-2.4,0.4c-0.1,0.3-0.8,0.5-2.4,0.6c-1.2,0.1-3.3,0.2-4.5,0.3c-1.4,0.1-2.4,0.3-2.6,0.6c-0.2,0.3-1,0.4-2.6,0.5
		c-1.3,0-2.3,0.2-2.2,0.3c0.1,0.2-2.9,0.4-4.1,0.3c-0.2,0-0.4,0.2-0.5,0.4c-0.1,0.3-0.7,0.4-2.3,0.4c-1.2,0-2.2,0.1-2.2,0.3
		c-0.1,0.1-1.1,0.3-2.4,0.4c-3.1,0.2-3,0.2-3,0.5c0,0.1-0.9,0.2-2,0.2c-1.4,0-2.1,0.1-2.3,0.4c-0.3,0.3-1,0.4-2.8,0.4
		c-1.5,0-2.3,0.1-2.2,0.3c0.1,0.2-0.6,0.3-1.8,0.3c-2.7,0.1-2.8,0.1-2.7,0.5c0.1,0.2-0.6,0.3-2.2,0.3c-1.4,0-2.3,0.1-2.4,0.3
		c-0.1,0.2-0.9,0.3-2.1,0.3c-1.2,0-2.3,0.2-2.8,0.4c-0.5,0.2-1.6,0.4-2.5,0.4c-1.1,0-1.8,0.1-2.1,0.4c-0.3,0.3-1.1,0.4-2.9,0.4
		c-1.6,0-2.4,0.1-2.3,0.3c0.1,0.2-0.4,0.3-1.3,0.3c-2.7,0.1-2.9,0.1-3.2,0.5c-0.2,0.2-1,0.4-2.5,0.4c-1.2,0-2.3,0.1-2.3,0.3
		c-0.1,0.1-1,0.3-2.1,0.3c-2.2,0.1-2.8,0.2-2.6,0.6c0.1,0.1-0.9,0.3-2.1,0.3c-1.7,0-2.3,0.1-2.5,0.4c-0.2,0.3-0.9,0.4-2.7,0.5
		c-1.4,0-2.5,0.2-2.5,0.3c0,0.1-0.9,0.2-2,0.2c-1.5,0-2,0.1-2.2,0.4c-0.1,0.3-0.7,0.4-2.4,0.4c-1.2,0-2.3,0.1-2.3,0.3
		c0,0.1-1.1,0.3-2.5,0.4c-1.6,0.1-2.5,0.2-2.6,0.5c-0.1,0.2-0.8,0.4-2.1,0.4c-1.4,0-2.1,0.1-2.4,0.4c-0.3,0.3-1.1,0.4-2.7,0.4
		c-1.3,0-2.3,0.1-2.3,0.3c0,0.2-0.9,0.3-2.2,0.3c-1.2,0-2.1,0.1-2,0.3c0.2,0.4-0.9,0.6-3,0.6c-1.1,0-2,0.1-2.1,0.3s-1.1,0.3-2.3,0.3
		c-1.6,0-2.2,0.1-2.3,0.4c-0.1,0.3-0.7,0.4-2.5,0.4c-1.3,0-2.4,0.1-2.5,0.3c-0.1,0.2-1,0.3-2.2,0.4c-1.2,0.1-2.2,0.3-2.3,0.4
		c-0.1,0.1-1,0.3-2,0.3c-1,0-2,0.2-2.3,0.4c-0.3,0.3-0.4,0.3-0.2-0.1c0.2-0.3,0.1-0.3-0.2-0.2c-0.2,0.1-0.4,0.3-0.3,0.5
		c0,0.2-0.7,0.3-2.2,0.3c-1.2,0-2.3,0.1-2.4,0.3c-0.1,0.2-1.1,0.3-2.3,0.3c-1.7,0-2.1,0.1-2.1,0.4c0,0.3-0.5,0.4-2.5,0.4
		c-1.4,0-2.6,0.1-2.6,0.3c-0.1,0.2-1,0.3-2,0.3c-1.3,0-2,0.2-2.1,0.4c-0.1,0.2-0.3,0.4-0.4,0.4c-0.2,0-0.2-0.2-0.1-0.4
		c0.2-0.3,0.1-0.3-0.2,0c-0.2,0.2-1.2,0.4-2.3,0.4c-1.3,0-2,0.1-2.2,0.4c-0.3,0.4-0.8,0.5-6.9,0.9c-1.4,0.1-2.3,0.3-2.5,0.6
		c-0.2,0.3-1,0.4-2.6,0.4c-1.3,0-2.2,0.1-2.2,0.3c0,0.2-0.9,0.3-2,0.3c-1.5,0-2,0.1-2.2,0.4c-0.1,0.3-0.7,0.4-2.7,0.4
		c-2.1,0-2.5,0.1-2.5,0.4c0,0.3-0.4,0.4-2.1,0.4c-1.2,0-2.1,0.1-2.1,0.3c0,0.2-0.6,0.3-1.4,0.3c-1,0-1.5,0.1-1.6,0.4
		c-0.1,0.3-0.6,0.4-1.5,0.4c-0.8,0-1.4,0.1-1.5,0.3c-0.1,0.1-0.7,0.3-1.5,0.3c-0.8,0-1.4,0.2-1.5,0.4c-0.1,0.2-0.6,0.4-1.3,0.4
		c-0.7,0-1.1,0.1-1,0.4c0,0.2-0.3,0.4-0.9,0.4c-0.5,0.1-1.1,0.2-1.3,0.4c-0.1,0.1-0.6,0.3-1.1,0.3c-0.5,0-0.9,0.2-1,0.4
		c-0.1,0.2-0.4,0.4-0.7,0.4c-0.3,0-0.9,0.2-1.3,0.4c-0.4,0.2-0.9,0.4-1,0.3c-0.1-0.1-0.3,0.1-0.4,0.3c-0.1,0.2-0.4,0.4-0.7,0.4
		c-0.3,0-0.6,0.1-0.6,0.3s-0.2,0.3-0.5,0.3c-0.3,0-0.9,0.2-1.3,0.4c-0.5,0.2-1,0.4-1.2,0.4c-0.4,0-0.4,0.1-0.1,0.4
		c0.3,0.4,0.2,0.4-0.4,0.4c-0.4,0-0.8,0.1-0.9,0.3s-0.4,0.3-0.7,0.3c-0.3,0-0.6,0.2-0.7,0.4c-0.1,0.2-0.4,0.4-0.7,0.4
		s-0.5,0.2-0.5,0.4c0,0.3-0.2,0.4-0.4,0.3c-0.3-0.1-0.4,0-0.4,0.3c0,0.3-0.2,0.5-0.5,0.5c-0.3,0-0.8,0.3-1.3,0.7
		c-0.4,0.4-0.9,0.7-1.1,0.7c-0.2,0-0.3,0.2-0.3,0.4c0,0.2-0.1,0.4-0.3,0.3c-0.1-0.1-0.3,0-0.4,0.1c-0.1,0.2-0.3,0.2-0.4,0.1
		c-0.1-0.1-0.3,0.1-0.3,0.3S35,58.3,35,58.2c-0.2-0.2-1.3,0.8-1.3,1.2c0,0.2-0.2,0.3-0.4,0.3s-0.6,0.3-0.8,0.7
		c-0.2,0.4-0.5,0.7-0.6,0.7c-0.3,0-2,1.7-2,2c0,0.1-0.2,0.3-0.5,0.3c-0.3,0-0.4,0.1-0.3,0.2c0.2,0.2-0.8,1.3-1.2,1.3
		c-0.2,0-0.2,0.2-0.2,0.4s-0.3,0.9-0.8,1.5c-0.5,0.6-1,1.2-1,1.4s-0.3,0.5-0.6,0.7c-0.3,0.2-0.6,0.7-0.6,1.1s-0.2,0.7-0.4,0.8
		c-0.2,0.1-0.4,0.5-0.4,0.8s-0.1,0.7-0.3,0.7s-0.3,0.3-0.3,0.7c0,0.4-0.2,0.7-0.4,0.7c-0.3,0-0.4,0.3-0.4,0.7c0,0.4-0.2,0.8-0.5,1
		c-0.3,0.2-0.4,0.5-0.3,0.9c0.1,0.4,0,0.7-0.2,0.8c-0.3,0.1-0.4,0.6-0.4,1.3c0,0.7-0.1,1.1-0.4,1.1c-0.2,0-0.4,0.4-0.4,1.1
		c0,0.6-0.2,1.2-0.3,1.3c-0.1,0.1-0.3,1.1-0.3,2.1c0,1.3-0.1,1.9-0.4,2c-0.3,0.1-0.4,2-0.4,12.4l0,12.2l0.7,0.2
		c0.4,0.1,1.1,0.2,1.7,0.2c0.6,0,1.5,0.1,2,0.3c2.9,0.9,23.3,1.5,27.1,0.9c9.4-1.6,14.7,1.1,15.1,7.9c0.1,2,0,2.4-1.2,4.9
		c-0.4,0.9-2.3,2.8-3.2,3.2c-0.4,0.2-1,0.5-1.3,0.6c-3.9,1.8-26.2,2-37,0.4c-1.6-0.2-3.8-0.5-4.9-0.7c-4.7-0.6-8.2-1.6-8.4-2.4
		c-0.2-0.7-0.8-0.4-0.8,0.4c0,0.3-0.2,0.6-0.4,0.7c-0.2,0.1-0.4,0.5-0.4,0.8c0,0.4-0.1,0.7-0.3,0.8s-0.3,0.5-0.3,0.9
		c0,0.4-0.1,0.6-0.3,0.6c-0.3-0.2-0.6,0.5-0.4,0.9c0.1,0.2,0.8,0.4,1.6,0.5c0.8,0.1,1.5,0.3,1.5,0.5c0.1,0.2,0.4,0.3,0.9,0.3
		c0.4,0,1.1,0.2,1.5,0.4c0.4,0.2,1.1,0.4,1.5,0.4c0.4,0,0.8,0.1,0.9,0.3c0.1,0.1,0.7,0.3,1.4,0.4s1.3,0.3,1.5,0.4
		c0.2,0.1,0.8,0.3,1.3,0.4c0.5,0.1,1.9,0.4,3,0.6c1.1,0.3,2.8,0.6,3.8,0.7c1,0.1,1.9,0.3,2.1,0.4c0.2,0.1,1.3,0.3,2.5,0.4
		c12.1,1.4,20,1.7,24.9,1c7.2-1.1,10.3-0.7,12.8,1.8c1.1,1.1,1.5,1.8,2.4,4.2c1.3,3.4-1,8.2-4.7,9.9c-0.6,0.3-1.2,0.6-1.5,0.7
		c-0.3,0.1-1.1,0.2-1.9,0.3c-0.7,0-2.1,0.2-3.1,0.4c-2.1,0.5-20.8,0.6-23.8,0.1c-1-0.2-2.9-0.4-4.3-0.6c-4.7-0.5-6.4-0.8-11-1.9
		c-1-0.2-2.1-0.4-2.5-0.4c-0.4,0-0.8-0.1-0.9-0.3s-0.5-0.3-1-0.3c-0.5,0-1.2-0.1-1.6-0.3c-0.4-0.2-1.3-0.4-1.8-0.6
		c-2.6-0.6-3.6-0.9-3.8-1.1c-0.1-0.1-0.5-0.3-0.9-0.3c-0.6,0-3.5-0.9-3.8-1.2c-0.4-0.4-1.8-0.2-1.6,0.2c0.1,0.2-0.1,0.5-0.3,0.6
		c-0.7,0.3-0.6,2.2,0.1,2.4c0.3,0.1,0.6,0.3,0.6,0.4c0,0.1,0.1,0.3,0.3,0.3c0.2,0,1.7,0.7,3.5,1.5c2.7,1.3,7.9,3.4,11.9,4.9
		c8.4,3.1,19.2,5.1,31,5.9c5.6,0.4,7.2,0.3,13.3-0.6c11.4-1.7,14.6,14.4,3.4,17c-8,1.9-25.1,1.1-37.5-1.7c-1.1-0.2-2.5-0.6-3.1-0.7
		c-0.6-0.1-1.9-0.5-2.9-0.7c-0.9-0.3-2.4-0.7-3.1-0.9c-3.1-0.8-10.7-3.5-15.2-5.4c-3.9-1.6-3.7-1.7-3.7,0.6c0,2,0.4,3.3,0.9,3.3
		c0.2,0,2,0.8,3.9,1.8c3.7,1.9,7.7,3.6,11.4,4.9c2.9,1,3.3,1.2,5.3,1.7c0.9,0.3,2,0.6,2.4,0.7c0.4,0.1,1.3,0.4,2,0.6
		c0.7,0.2,2.1,0.5,3.1,0.7c3.3,0.8,3.8,0.9,5.6,1.2c0.9,0.2,2.2,0.4,2.9,0.6c0.6,0.1,2.7,0.5,4.6,0.7c1.9,0.3,4.3,0.6,5.3,0.7
		c4.2,0.6,10.3,1,17,1c8.2,0,8.7,0.2,11.1,2.7c1.8,2,3.1,7.7,1.9,8.4c-0.1,0.1-0.3,0.5-0.4,1c-0.3,1.6-2.8,3.9-4.7,4.4
		c-5.4,1.5-19.2,1.6-27.8,0.2c-0.9-0.2-2.9-0.5-4.4-0.7c-1.5-0.2-3.3-0.6-4-0.7c-2.3-0.5-8.4-2-9.3-2.3c-3.6-1.1-8.6-2.7-8.9-2.9
		c-0.2-0.1-0.9-0.4-1.7-0.7c-1.5-0.5-1.6-0.6-4.3-1.8c-0.9-0.4-2.3-1-3-1.3c-0.7-0.3-1.8-0.8-2.4-1.1c-1.4-0.8-3.2-0.7-1.9,0.1
		c0.2,0.1,0.3,0.5,0.3,0.9c0,0.4,0.2,0.8,0.4,1.1c0.2,0.2,0.4,0.7,0.4,1.1c0,0.4,0.2,0.8,0.3,0.9c0.1,0.1,0.3,0.4,0.4,0.7
		c0.1,0.7,0.8,1,0.8,0.4c0-0.8,0.6-0.7,2.9,0.4c1.2,0.6,2.4,1.1,2.5,1.1c0.2,0,0.3,0.1,0.3,0.3c0,0.2,0.1,0.3,0.3,0.3
		c0.2,0,1.9,0.8,3.9,1.7c5,2.4,7.3,3.4,10.6,4.7c0.7,0.3,1.5,0.6,1.8,0.7c0.3,0.1,0.6,0.3,0.8,0.3c0.2,0,0.7,0.2,1.2,0.4
		c1.2,0.5,6.4,2.1,9.8,3c0.6,0.2,1.7,0.4,2.4,0.6c0.7,0.2,1.9,0.5,2.7,0.6c0.8,0.2,2.5,0.5,3.7,0.7c1.3,0.2,3.4,0.5,4.7,0.7
		c1.3,0.1,3.4,0.4,4.6,0.5c1.2,0.2,5.5,0.3,9.7,0.3c5.4,0,7.9,0.1,8.6,0.4c7.3,2.6,7.9,11.8,1.1,15.8c-1.2,0.7-19.4,0.8-23.3,0.2
		c-1.1-0.2-3-0.5-4.1-0.6c-1.2-0.1-3-0.5-4.1-0.7c-1.1-0.2-2.6-0.6-3.3-0.7c-2-0.4-4-1-4.2-1.2c-0.1-0.1-0.5-0.2-0.8-0.2
		c-0.3,0-1-0.2-1.4-0.4c-0.4-0.2-1-0.4-1.2-0.4c-0.2,0-0.6-0.1-0.9-0.2c-0.6-0.3-2.2-1-3.8-1.6c-0.7-0.3-1.3-0.6-1.4-0.7
		c-0.1-0.1-0.7-0.4-1.4-0.8c-1.4-0.7-3.4-1.8-3.9-2.2c-1.8-1.4-5.6-3.9-5.8-3.9c-0.2,0-0.3,3.6-0.3,11.9c0,6.9,0.1,11.8,0.3,11.7
		c0.4-0.2,0.6,0.6,0.6,2.3c0,0.8,0.1,1.6,0.3,1.6c0.2,0.1,0.3,0.7,0.3,1.5c0,0.9,0.2,1.4,0.4,1.4c0.3,0,0.4,0.4,0.4,1.1
		c0,0.6,0.1,1.1,0.3,1.1c0.1,0,0.3,0.4,0.4,0.8c0.1,0.4,0.2,0.8,0.4,0.7c0.2,0,0.3,0,0.3,0.1c-0.1,0.5,0.4,2.1,0.6,1.9
		c0.2-0.1,0.3,0.2,0.3,0.7c0,0.5,0.1,0.9,0.3,0.9s0.3,0.3,0.3,0.6s0.2,0.7,0.4,0.8c0.2,0.1,0.5,0.5,0.5,0.9c0,0.3,0.1,0.6,0.3,0.6
		c0.1,0,0.2,0.2,0.2,0.4c0,0.2,0.2,0.4,0.4,0.4c0.2,0,0.5,0.3,0.6,0.7c0.1,0.4,0.3,0.7,0.5,0.7c0.2,0,0.3,0.2,0.3,0.4
		c0,0.2,0.1,0.4,0.3,0.4s0.3,0.2,0.3,0.4c0,0.2,0.2,0.4,0.4,0.4c0.2,0,0.4,0.2,0.4,0.5c0,0.2,0.6,1.1,1.4,1.9
		c0.8,0.8,1.4,1.6,1.4,1.7c0,0.1,0.2,0.3,0.4,0.3c0.2,0,0.4,0.2,0.4,0.4c0,0.2,0.1,0.4,0.2,0.4c0.1,0,1.1,0.8,2.2,1.9
		c1.1,1,2.1,1.9,2.3,1.9c0.2,0,0.4,0.1,0.4,0.3s0.2,0.3,0.4,0.3c0.2,0,0.4,0.2,0.4,0.4c0,0.2,0.2,0.4,0.6,0.4
		c0.4,0.1,0.6,0.2,0.5,0.4s0.1,0.3,0.4,0.3c0.3,0,0.6,0.2,0.7,0.4c0.1,0.2,0.4,0.4,0.7,0.4c0.3,0,0.6,0.2,0.7,0.4
		c0.1,0.2,0.3,0.4,0.4,0.3c0.1-0.1,0.8,0.2,1.5,0.7c0.7,0.5,1.5,0.8,1.7,0.8c0.3,0,0.6,0.1,0.7,0.3c0.1,0.2,0.6,0.3,1,0.3
		c0.7,0,0.8,0.1,0.7,0.4c-0.1,0.3,0.1,0.4,0.9,0.4c0.7,0,1.2,0.1,1.3,0.4c0.1,0.3,0.5,0.4,1.2,0.4c0.5,0,1.1,0.1,1.2,0.3
		s0.8,0.3,1.6,0.3c1,0,1.4,0.1,1.5,0.4c0.1,0.2,0.3,0.4,0.4,0.4c1-0.2,4.6,0.1,4.5,0.3c-0.1,0.2,7.4,0.3,21.2,0.3
		c17.9,0,21.4,0.1,21.8,0.4c0.4,0.3,4.6,0.4,26.7,0.4c16.5,0,26.3,0.1,26.4,0.3c0.1,0.2,0.2,0.3,0.4,0.3s0.2-0.1,0.1-0.3
		c-0.1-0.2,0.1-0.2,0.5,0.1c0.5,0.3,5.9,0.4,26.7,0.5c14.3,0.1,26.1,0.2,26.3,0.3c0.2,0.1,12.1,0.2,26.5,0.3
		c21.6,0,26.3,0.1,26.8,0.4c1.2,0.8,100.5,0.9,101.1,0.1c0.2-0.3,0.7-0.5,1.1-0.5c0.4,0,1-0.1,1.4-0.3c0.4-0.1,1.1-0.3,1.7-0.4
		c0.6-0.1,1-0.3,0.9-0.4c-0.1-0.1,0.2-0.3,0.7-0.3c0.5,0,0.9-0.2,1-0.4c0.1-0.2,0.4-0.4,0.7-0.4s0.6-0.1,0.7-0.2
		c0.1-0.1,0.3-0.2,0.4-0.2c0.6,0,1.5-0.5,1.5-0.7c0-0.1,0.3-0.3,0.7-0.3c0.4,0,0.7-0.1,0.7-0.3s0.2-0.3,0.4-0.3
		c0.2,0,0.5-0.2,0.6-0.4c0.1-0.2,0.4-0.4,0.7-0.4s0.6-0.2,0.7-0.4c0.1-0.2,0.3-0.4,0.6-0.4s0.4-0.1,0.4-0.3c0-0.1,0.2-0.3,0.5-0.4
		c0.7-0.2,1.4-0.7,2.2-1.5c0.4-0.4,0.9-0.6,1.1-0.6c0.2,0,0.4-0.2,0.4-0.4c0-0.2,0.1-0.4,0.3-0.4c0.4,0,3.4-3.1,3.4-3.5
		c0-0.1,0.1-0.2,0.3-0.2c0.4,0,1-0.6,1.2-1.4c0.1-0.3,0.3-0.6,0.5-0.6c0.1,0,0.3-0.2,0.3-0.4c0-0.2,0.2-0.4,0.4-0.4
		c0.2,0,0.4-0.2,0.4-0.4c0-0.2,0.1-0.4,0.3-0.4c0.2,0,0.3-0.2,0.3-0.4c0-0.2,0.2-0.4,0.4-0.4c0.2,0,0.4-0.3,0.4-0.6
		c0-0.3,0.1-0.6,0.3-0.6c0.2,0,0.3-0.2,0.3-0.4c0-0.2,0.2-0.5,0.4-0.6c0.2-0.1,0.4-0.4,0.4-0.7s0.1-0.6,0.3-0.6
		c0.2,0,0.4-0.3,0.5-0.7c0.1-0.4,0.3-0.7,0.4-0.7c0.1,0,0.3-0.4,0.3-0.9c0-0.5,0.1-0.8,0.3-0.7c0.2,0.1,0.4-0.2,0.5-0.7
		c0.1-0.5,0.3-1,0.4-1c0.1-0.1,0.2-0.5,0.2-1c0-0.5,0.2-0.9,0.4-1c0.2-0.1,0.4-0.5,0.4-1c0-0.4,0.2-1,0.4-1.1
		c0.2-0.2,0.4-0.8,0.4-1.3c0-0.5,0.1-1,0.3-1c0.2,0,0.3-0.6,0.3-1.4c0-0.8,0.2-1.7,0.4-2.1c0.5-0.7,0.6-3.8,0.5-17.9
		c-0.1-7.4-0.1-9.4-0.5-9.9c-0.3-0.5-0.4-2.3-0.4-9.1c0-4.7-0.1-8.5-0.3-8.5c-0.1,0-0.3-1.9-0.3-4.2c-0.1-10.8-0.2-12.8-0.5-13.2
		c-0.3-0.3-0.4-2.7-0.4-8.8c0-6.7-0.1-8.4-0.4-8.7c-0.3-0.3-0.4-2.1-0.4-9.1c0-4.9-0.1-8.8-0.3-8.8c-0.1-0.1-0.3-3.8-0.3-8.4
		c0-6.5-0.1-8.4-0.4-8.7c-0.3-0.3-0.4-2.2-0.4-8.7c0-4.5-0.1-8.4-0.3-8.7s-0.3-4.3-0.4-9c-0.2-9.4-0.2-9.3-0.5-9.1
		c-0.1,0.1-0.2-3.5-0.2-7.9c0-6.6-0.1-8.2-0.4-8.9s-0.4-2.4-0.4-9.5c0-4.8-0.1-8.7-0.3-8.8c-0.1,0-0.3-4-0.3-8.8
		c0-6.6-0.1-8.8-0.4-9.1c-0.2-0.3-0.4-1.6-0.5-3.4c-0.2-3.8-0.6-6.3-1-6.5c-0.2-0.1-0.4-0.3-0.3-0.4c0.2-1.2,0-2.7-0.3-2.7
		c-0.2,0-0.4-0.3-0.4-1c0-0.6-0.2-1.1-0.4-1.1c-0.1,0-0.3-0.4-0.3-0.8s-0.2-1-0.4-1.2c-0.2-0.2-0.4-0.6-0.4-0.8c0-0.6-1-2.6-1.2-2.4
		c-0.1,0.1-0.2-0.2-0.2-0.7c0-0.5-0.1-0.9-0.2-0.9c-0.2,0-0.7-0.8-1.1-1.8c-0.1-0.3-0.3-0.5-0.5-0.5c-0.1,0-0.2-0.1-0.1-0.3
		c0.1-0.2,0-0.3-0.1-0.3c-0.2,0-0.3-0.2-0.3-0.4c0-0.2-0.1-0.4-0.3-0.5s-0.5-0.6-0.9-1.2c-0.3-0.6-0.6-1-0.6-0.9
		c0,0.1-0.3,0-0.6-0.4c-0.3-0.3-0.6-0.8-0.6-1c0-0.2-0.2-0.5-0.4-0.6c-0.2-0.1-0.4-0.3-0.4-0.4c0-0.4-0.9-1.4-1.2-1.2
		c-0.1,0.1-0.2,0-0.2-0.1c0-0.4-1.6-2-2-2c-0.2,0-0.3-0.1-0.3-0.3c0-0.3-1.5-2-1.8-2c-0.3,0-1.3-1-1.1-1.2c0.1-0.1-0.1-0.2-0.5-0.2
		s-0.9-0.3-1.2-0.7c-0.3-0.4-0.9-0.8-1.3-0.9c-0.4-0.1-0.6-0.3-0.6-0.5c0-0.1-0.2-0.3-0.4-0.3c-0.2,0-0.5-0.2-0.6-0.4
		C369,4.2,368.6,4,368.3,4s-0.6-0.1-0.6-0.3c0-0.2-0.3-0.3-0.7-0.3c-0.4,0-0.8-0.2-0.9-0.4c-0.1-0.2-0.5-0.4-0.8-0.4
		s-0.7-0.1-0.7-0.3c0-0.1-0.4-0.3-1-0.4c-0.5-0.1-1-0.3-1-0.5s-0.5-0.3-1.1-0.3c-0.6,0-1.2-0.1-1.2-0.3C360,0.2,349.9-0.2,344.7,0.2
		 M223,76.2c0,0.2,1.3,0.3,3.3,0.3c2.7,0,3.3,0.1,3.3,0.4c0,0.3,0.4,0.4,2.3,0.4c1.3,0,2.3,0.1,2.3,0.3c0,0.2,0.8,0.3,1.9,0.3
		c1.5,0,1.9,0.1,1.9,0.4c0,0.3,0.3,0.4,1.4,0.4c1.1,0,1.4,0.1,1.4,0.4c0,0.3,0.3,0.4,1.4,0.4c0.8,0,1.4,0.1,1.4,0.3s0.7,0.3,1.6,0.3
		c1.2,0,1.6,0.1,1.6,0.4c0,0.3,0.3,0.4,1,0.4c0.6,0,1,0.1,1,0.3c0,0.2,0.7,0.3,1.6,0.3c1.2,0,1.6,0.1,1.6,0.4c0,0.3,0.3,0.4,0.7,0.4
		s0.7,0.2,0.7,0.4c0,0.3,0.3,0.4,1.1,0.4c0.6,0,1.1,0.1,1.1,0.3s0.4,0.3,1,0.3c0.7,0,1,0.1,1,0.4c0,0.3,0.3,0.4,0.9,0.4
		c0.5,0,0.9,0.1,0.9,0.3s0.4,0.3,1,0.3c0.7,0,1,0.1,1,0.4c0,0.3,0.3,0.4,0.9,0.4c0.6,0,0.9,0.1,0.9,0.4c0,0.3,0.3,0.4,0.7,0.4
		c0.4,0,0.7,0.1,0.7,0.3c0,0.2,0.3,0.3,0.7,0.3c0.4,0,0.7,0.2,0.7,0.4c0,0.3,0.3,0.4,0.7,0.4c0.4,0,0.7,0.1,0.7,0.3s0.3,0.3,0.7,0.3
		c0.4,0,0.7,0.2,0.7,0.4c0,0.3,0.3,0.4,0.9,0.4c0.5,0,0.9,0.1,0.9,0.3c0,0.5,0.8,1.1,1.4,1.1c0.3,0,0.6,0.2,0.6,0.4
		c0,0.3,0.3,0.4,0.7,0.4c0.4,0,0.7,0.1,0.7,0.3c0,0.2,0.2,0.3,0.4,0.3c0.2,0,0.4,0.2,0.4,0.4c0,0.3,0.3,0.4,0.7,0.4
		c0.4,0,0.7,0.1,0.7,0.3s0.2,0.3,0.4,0.3c0.2,0,0.4,0.2,0.4,0.4c0,0.3,0.3,0.4,0.7,0.4s0.7,0.2,0.7,0.4c0,0.2,0.2,0.4,0.4,0.4
		c0.2,0,0.4,0.1,0.4,0.3c0,0.2,0.3,0.3,0.7,0.3c0.4,0,0.7,0.1,0.7,0.3c0,0.4,0.7,1.1,1.1,1.1c0.2,0,0.3,0.2,0.3,0.4
		c0,0.2,0.2,0.4,0.4,0.4c0.2,0,0.4,0.2,0.4,0.4c0,0.2,0.3,0.4,0.6,0.4c0.6,0,1.4,0.6,1.4,1.1c0,0.2,0.1,0.3,0.3,0.3
		c0.4,0,1.1,0.7,1.1,1.1c0,0.2,0.2,0.3,0.4,0.3c0.2,0,0.4,0.2,0.4,0.4c0,0.2,0.1,0.4,0.3,0.4c0.4,0,1.1,0.7,1.1,1.1
		c0,0.2,0.1,0.3,0.3,0.3c0.4,0,1.1,0.7,1.1,1.1c0,0.2,0.2,0.3,0.4,0.3c0.2,0,0.4,0.2,0.4,0.4c0,0.2,0.1,0.4,0.3,0.4
		c0.4,0,1.1,0.7,1.1,1.1c0,0.2,0.1,0.3,0.3,0.3c0.7,0,1.2,0.9,0.9,1.5c-0.5,0.8-0.5,1.6,0.1,1c0.2-0.2,0.4-0.6,0.4-0.8
		c0-0.2,0.1-0.5,0.2-0.7c0.2-0.3,1.7-2.9,2.5-4.4c0.9-1.7,1.4-2,3.6-2c7-0.1,12.4,0.1,12.9,0.4c0.8,0.5,0.5,128.9-0.3,129.5
		c-0.6,0.4-13,0.4-13.4,0c-0.1-0.1-0.3-14.4-0.3-31.6c-0.1-27.6-0.1-31.4-0.5-31.4c-0.3,0-0.4,0.3-0.4,0.7c0,0.4-0.1,0.7-0.3,0.7
		c-0.5,0-1.1,0.8-1.1,1.6c0,0.4-0.1,0.7-0.3,0.7c-0.4,0-1.1,0.7-1.1,1.1c0,0.2-0.2,0.3-0.4,0.3c-0.3,0-0.4,0.3-0.4,0.7
		c0,0.4-0.1,0.7-0.3,0.7c-0.4,0-1.1,0.7-1.1,1.1c0,0.2-0.2,0.3-0.4,0.3c-0.2,0-0.4,0.1-0.4,0.3s-0.2,0.5-0.4,0.7
		c-0.2,0.2-0.5,0.4-0.7,0.4s-0.3,0.2-0.3,0.4c0,0.2-0.1,0.4-0.3,0.4s-0.5,0.2-0.7,0.4c-0.2,0.2-0.4,0.5-0.4,0.7
		c0,0.2-0.2,0.3-0.4,0.3c-0.2,0-0.4,0.1-0.4,0.3c0,0.2-0.2,0.5-0.4,0.7c-0.2,0.2-0.5,0.4-0.7,0.4c-0.2,0-0.3,0.2-0.3,0.4
		c0,0.2-0.1,0.4-0.3,0.4c-0.2,0-0.5,0.2-0.7,0.4c-0.2,0.2-0.4,0.5-0.4,0.7c0,0.2-0.2,0.3-0.4,0.3c-0.2,0-0.4,0.1-0.4,0.3
		s-0.2,0.5-0.4,0.7c-0.2,0.2-0.5,0.4-0.7,0.4c-0.2,0-0.3,0.1-0.3,0.3c0,0.5-0.8,1.1-1.5,1.1c-0.5,0-0.7,0.2-0.7,0.4
		c0,0.2-0.1,0.4-0.3,0.4c-0.2,0-0.3,0.2-0.3,0.4c0,0.2-0.2,0.4-0.4,0.4c-0.2,0-0.4,0.1-0.4,0.3c0,0.2-0.3,0.3-0.7,0.3
		c-0.4,0-0.7,0.2-0.7,0.4c0,0.2-0.2,0.4-0.4,0.4c-0.2,0-0.4,0.1-0.4,0.3s-0.3,0.3-0.7,0.3c-0.4,0-0.7,0.1-0.7,0.3
		c0,0.5-0.8,1.1-1.5,1.1c-0.5,0-0.7,0.2-0.7,0.4c0,0.2-0.1,0.4-0.3,0.4c-0.2,0-0.3,0.2-0.3,0.4c0,0.3-0.3,0.4-0.7,0.4
		c-0.4,0-0.7,0.1-0.7,0.3s-0.3,0.3-0.7,0.3c-0.4,0-0.7,0.2-0.7,0.4c0,0.3-0.3,0.4-0.9,0.4c-0.5,0-0.9,0.1-0.9,0.3s-0.3,0.3-0.7,0.3
		c-0.4,0-0.7,0.2-0.7,0.4c0,0.2-0.1,0.4-0.3,0.4c-0.2,0-0.3,0.2-0.3,0.4c0,0.3-0.3,0.4-1.1,0.4c-0.6,0-1.1,0.1-1.1,0.3
		c0,0.2-0.3,0.3-0.7,0.3c-0.4,0-0.7,0.2-0.7,0.4c0,0.3-0.3,0.4-0.9,0.4c-0.5,0-0.9,0.1-0.9,0.3c0,0.2-0.3,0.3-0.7,0.3
		c-0.4,0-0.7,0.2-0.7,0.4c0,0.3-0.3,0.4-1.1,0.4c-0.8,0-1.1,0.1-1.1,0.4c0,0.3-0.3,0.4-0.7,0.4c-0.4,0-0.7,0.1-0.7,0.3
		c0,0.2-0.4,0.3-1,0.3c-0.7,0-1,0.1-1,0.4c0,0.3-0.3,0.4-1.1,0.4c-0.6,0-1.1,0.1-1.1,0.3s-0.5,0.3-1.1,0.3c-0.8,0-1.1,0.1-1.1,0.4
		c0,0.3-0.3,0.4-1.1,0.4s-1.1,0.1-1.1,0.4c0,0.3-0.3,0.4-1.4,0.4c-0.8,0-1.4,0.1-1.4,0.3s-0.5,0.3-1.1,0.3c-0.8,0-1.1,0.1-1.1,0.4
		c0,0.3-0.4,0.4-1.9,0.4c-1,0-1.9,0.1-1.9,0.3c0,0.2-0.8,0.3-1.9,0.3c-1.5,0-1.9,0.1-1.9,0.4c0,0.3-0.4,0.4-2.1,0.4
		c-1.2,0-2.1,0.1-2.1,0.3c0,0.2-1,0.3-2.6,0.3c-2.1,0-2.6,0.1-2.6,0.4c0,0.4-0.8,0.4-5.6,0.4c-4.8,0-5.6,0.1-5.6,0.4
		c0,0.3-0.5,0.4-2.6,0.4H209l-0.1-2.6c-0.1-1.5-0.1,3.4-0.2,10.7c-0.1,12.9-0.1,13.3-0.6,13.6c-0.8,0.5-12.6,0.4-13.3-0.1
		c-0.5-0.3-0.5-1.4-0.7-11.8l-0.2-11.5h-2.5c-1.5,0-2.5-0.1-2.5-0.3c0-0.2-1-0.3-2.3-0.3c-1.8,0-2.3-0.1-2.3-0.4
		c0-0.3-0.4-0.4-1.9-0.4c-1,0-1.9-0.1-1.9-0.3c0-0.2-0.6-0.3-1.4-0.3c-1.1,0-1.4-0.1-1.4-0.4c0-0.3-0.3-0.4-1.4-0.4
		c-0.8,0-1.4-0.1-1.4-0.3s-0.7-0.3-1.6-0.3c-1.2,0-1.6-0.1-1.6-0.4c0-0.3-0.3-0.4-1.1-0.4s-1.1-0.1-1.1-0.4c0-0.3-0.3-0.4-1-0.4
		c-0.5,0-1-0.1-1-0.3s-0.5-0.3-1.1-0.3c-0.8,0-1.1-0.1-1.1-0.4c0-0.3-0.3-0.4-1.1-0.4c-0.6,0-1.1-0.1-1.1-0.3c0-0.2-0.3-0.3-0.7-0.3
		c-0.4,0-0.7-0.2-0.7-0.4c0-0.3-0.3-0.4-0.7-0.4s-0.7-0.2-0.7-0.4c0-0.3-0.3-0.4-1.1-0.4c-0.6,0-1.1-0.1-1.1-0.3
		c0-0.2-0.3-0.3-0.7-0.3c-0.4,0-0.7-0.2-0.7-0.4c0-0.3-0.3-0.4-0.7-0.4c-0.4,0-0.7-0.1-0.7-0.3c0-0.2-0.3-0.3-0.7-0.3
		c-0.4,0-0.7-0.2-0.7-0.4c0-0.3-0.3-0.4-0.9-0.4s-0.9-0.1-0.9-0.4c0-0.3-0.3-0.4-0.7-0.4c-0.4,0-0.7-0.1-0.7-0.3s-0.3-0.3-0.7-0.3
		c-0.4,0-0.7-0.2-0.7-0.4c0-0.3-0.3-0.4-0.7-0.4c-0.4,0-0.7-0.1-0.7-0.3s-0.2-0.3-0.4-0.3c-0.2,0-0.4-0.2-0.4-0.4
		c0-0.3-0.3-0.4-0.7-0.4c-0.4,0-0.7-0.2-0.7-0.4c0-0.2-0.2-0.4-0.4-0.4c-0.2,0-0.4-0.1-0.4-0.3s-0.3-0.3-0.7-0.3
		c-0.4,0-0.7-0.1-0.7-0.3c0-0.5-0.8-1.1-1.6-1.1c-0.4,0-0.7-0.1-0.7-0.3c0-0.5-0.8-1.1-1.4-1.1c-0.3,0-0.6-0.2-0.6-0.4
		c0-0.2-0.2-0.4-0.4-0.4c-0.2,0-0.4-0.1-0.4-0.3c0-0.4-0.7-1.1-1.1-1.1c-0.2,0-0.3-0.2-0.3-0.4c0-0.3-0.3-0.4-0.7-0.4
		c-0.4,0-0.7-0.1-0.7-0.3s-0.2-0.3-0.4-0.3c-0.2,0-0.4-0.2-0.4-0.4c0-0.2-0.1-0.4-0.3-0.4c-0.2,0-0.3-0.2-0.3-0.4
		c0-0.2-0.2-0.4-0.4-0.4c-0.2,0-0.4-0.1-0.4-0.3c0-0.2-0.2-0.3-0.4-0.3c-0.2,0-0.4-0.1-0.4-0.3c0-0.4-0.7-1.1-1.1-1.1
		c-0.2,0-0.3-0.2-0.3-0.4c0-0.2-0.1-0.4-0.3-0.4c-0.2,0-0.3-0.2-0.3-0.4c0-0.2-0.2-0.4-0.4-0.4c-0.2,0-0.4-0.1-0.4-0.3
		c0-0.2-0.2-0.3-0.4-0.3c-0.2,0-0.4-0.1-0.4-0.3c0-0.4-0.7-1.1-1.1-1.1c-0.2,0-0.3-0.2-0.3-0.4c0-0.2-0.1-0.4-0.3-0.4
		c-0.2,0-0.3-0.3-0.3-0.7c0-0.4-0.2-0.7-0.4-0.7c-0.2,0-0.4-0.1-0.4-0.3c0-0.4-0.7-1.1-1.1-1.1c-0.2,0-0.3-0.3-0.3-0.7
		c0-0.4-0.2-0.7-0.4-0.7c-0.2,0-0.4-0.2-0.4-0.4c0-0.2-0.1-0.4-0.3-0.4c-0.2,0-0.3-0.2-0.3-0.4c0-0.2-0.2-0.4-0.4-0.4
		c-0.3,0-0.4-0.3-0.4-0.7c0-0.4-0.1-0.7-0.3-0.7c-0.2,0-0.3-0.3-0.3-0.7c0-0.4-0.2-0.7-0.4-0.7c-0.2,0-0.4-0.2-0.4-0.4
		c0-0.2-0.2-0.4-0.4-0.4c-0.3,0-0.4-0.3-0.4-0.7c0-0.4-0.1-0.7-0.3-0.7s-0.3-0.3-0.3-0.7c0-0.4-0.2-0.7-0.4-0.7
		c-0.3,0-0.4-0.3-0.4-0.7c0-0.4-0.1-0.7-0.3-0.7c-0.2,0-0.3-0.5-0.3-1.1c0-0.8-0.1-1.1-0.4-1.1c-0.3,0-0.4-0.3-0.4-1.1
		s-0.1-1.1-0.4-1.1c-0.3,0-0.4-0.3-0.4-1c0-0.5-0.1-1-0.3-1s-0.3-0.5-0.3-1.1c0-0.8-0.1-1.1-0.4-1.1c-0.3,0-0.4-0.4-0.4-1.9
		c0-1-0.1-1.9-0.3-1.9c-0.2,0-0.3-2.9-0.3-8.1c0-5.2,0.1-8.1,0.3-8.1c0.2,0,0.3-0.8,0.3-1.9c0-1.5,0.1-1.9,0.4-1.9
		c0.3,0,0.4-0.3,0.4-0.7c0-0.4,0.1-0.8,0.3-0.9c0.2-0.1,0.3-0.4,0.3-0.6c0-0.4-0.1-0.4-0.4-0.1c-0.2,0.2-0.4,0.5-0.4,0.7
		c0,0.2-0.1,0.4-0.2,0.5c-0.2,0.1-1.3,2.1-2.3,4.2c-0.3,0.5-0.9,2-1.5,3.4c-0.2,0.5-0.5,1.2-0.8,1.7c-0.2,0.4-0.4,1-0.4,1.3
		c0,0.3-0.1,0.6-0.3,0.7c-0.1,0.1-0.3,0.7-0.5,1.3c-0.1,0.6-0.3,1.2-0.5,1.3c-0.1,0.1-0.3,0.5-0.3,1s-0.1,1.1-0.3,1.4
		c-0.3,0.6-0.7,2.6-1.1,5.8c-0.1,1.1-0.4,2.3-0.5,2.6c-0.9,1.8-1,26.9,0,28.7c0.1,0.3,0.4,1.4,0.5,2.4c0.4,3.4,0.7,4.7,1.1,5.4
		c0.2,0.3,0.3,0.9,0.3,1.3c0,0.4,0.1,0.8,0.3,0.9c0.2,0.1,0.3,0.4,0.3,0.7c0,0.3,0.2,0.9,0.4,1.3c0.2,0.4,0.4,1,0.4,1.2
		s0.2,0.7,0.4,1.2c0.2,0.4,0.8,1.7,1.4,2.8c5.1,10.4,12.8,17.6,22.2,20.6c0.9,0.3,1.8,0.6,2,0.6c3.3,1.2,7,1.6,14.3,1.6
		c7.2,0,10.7-0.2,12-0.7c0.4-0.2,1.4-0.4,2.3-0.5c1.9-0.3,3.1-0.6,5.1-1.4c0.9-0.3,1.8-0.7,2.1-0.8c0.3-0.1,0.6-0.2,0.7-0.3
		c0.1-0.1,0.7-0.4,1.4-0.7c0.7-0.3,1.3-0.6,1.4-0.7c1-1.2,2.3-1.2,2.9,0.1c0.6,1.2,1.9,4,2.1,4.5c0.1,0.2,0.3,0.6,0.4,0.9
		c0.1,0.2,0.6,1.1,1,2l0.8,1.6l-1.1,0.9c-1.2,1.1-7.1,4.1-8,4.1c-0.3,0-0.7,0.1-0.9,0.3c-0.3,0.3-1.8,0.7-4.5,1.1
		c-0.8,0.1-1.9,0.4-2.4,0.6c-0.5,0.2-1.7,0.3-2.6,0.3s-2,0.1-2.6,0.3c-1.4,0.4-19.8,0.4-22.2,0c-5-0.9-9.4-1.8-10.5-2.3
		c-0.3-0.1-1.3-0.5-2.1-0.7c-0.9-0.3-1.7-0.6-1.8-0.8c-0.2-0.1-0.4-0.2-0.7-0.2c-0.6,0-6.2-2.8-6.6-3.3c-0.2-0.2-0.5-0.4-0.6-0.4
		c-0.1,0-1.3-0.7-2.5-1.6c-7.1-5.2-12.2-12-16.2-21.4c-0.3-0.6-0.6-1.4-0.8-1.6c-0.1-0.3-0.3-0.7-0.3-1s-0.1-0.6-0.2-0.8
		c-0.5-0.6-2.2-7.1-2.9-10.7c-1.6-8.4-2.2-27-1.1-34.4c0.2-1.1,0.4-3,0.5-4.1c0.3-2.8,0.8-5.7,1.2-6.3c0.1-0.3,0.3-0.9,0.3-1.4
		c0-0.5,0.2-1.3,0.4-1.6c0.2-0.4,0.4-1.1,0.4-1.6c0-0.5,0.1-1,0.3-1.1s0.3-0.5,0.3-0.8s0.2-0.9,0.4-1.2c0.2-0.3,0.4-0.8,0.4-1.2
		c0-0.4,0.1-0.9,0.3-1.1c0.1-0.3,0.5-1,0.7-1.6c0.3-0.6,0.6-1.5,0.9-1.9c0.2-0.4,0.4-1,0.4-1.2c0-0.2,0.1-0.4,0.3-0.4
		s0.3-0.1,0.3-0.3c0-0.4,1.4-3.1,2.2-4.6c0.3-0.6,0.7-1.2,0.8-1.4c0.2-0.5,2.4-3.8,2.7-4c0.1-0.1,0.6-0.7,1.2-1.4
		c2.3-3,5.7-6.4,8.1-8c0.3-0.2,0.7-0.5,0.8-0.6c0.4-0.4,3.8-2.6,4.2-2.6c0.2,0,0.4-0.1,0.4-0.3s0.3-0.4,0.7-0.5
		c0.4-0.1,0.7-0.3,0.7-0.4s0.2-0.3,0.4-0.3c0.2,0,0.8-0.2,1.2-0.4c1.5-0.8,2.9-1.3,3.3-1.3c0.2,0,0.5-0.1,0.6-0.3s0.5-0.3,1-0.3
		c0.4,0,0.9-0.1,1.1-0.3c0.3-0.3,2.5-0.8,4.4-1.1c0.7-0.1,1.4-0.3,1.6-0.4s0.5-0.3,0.8-0.3c0.3,0,0.4-0.1,0.3-0.4
		c-0.2-0.4,0.5-1.3,1-1.3c0.2,0,0.3-0.2,0.3-0.4c0-0.2,0.2-0.4,0.4-0.4c0.2,0,0.4-0.1,0.4-0.3c0-0.5,0.8-1.1,1.4-1.1
		c0.3,0,0.6-0.2,0.6-0.4c0-0.2,0.2-0.4,0.4-0.4c0.2,0,0.4-0.1,0.4-0.3c0-0.2,0.3-0.3,0.7-0.3c0.4,0,0.7-0.2,0.7-0.4
		c0-0.2,0.2-0.4,0.4-0.4c0.2,0,0.4-0.1,0.4-0.3c0-0.5,0.8-1.1,1.4-1.1c0.3,0,0.6-0.2,0.6-0.4c0-0.3,0.3-0.4,0.7-0.4
		c0.8,0,1.6-0.6,1.6-1.1c0-0.2,0.3-0.3,0.7-0.3c0.4,0,0.7-0.1,0.7-0.3c0-0.2,0.4-0.3,0.9-0.3c0.6,0,0.9-0.1,0.9-0.4
		c0-0.2,0.1-0.4,0.3-0.4c0.2,0,0.3-0.2,0.3-0.4c0-0.3,0.3-0.4,0.7-0.4c0.4,0,0.7-0.1,0.7-0.3s0.4-0.3,0.9-0.3c0.6,0,0.9-0.1,0.9-0.4
		c0-0.3,0.3-0.4,0.7-0.4c0.4,0,0.7-0.1,0.7-0.3c0-0.2,0.4-0.3,1-0.3c0.7,0,1-0.1,1-0.4c0-0.3,0.3-0.4,0.9-0.4s0.9-0.1,0.9-0.4
		c0-0.3,0.3-0.4,0.7-0.4c0.4,0,0.7-0.1,0.7-0.3s0.5-0.3,1.1-0.3c0.8,0,1.1-0.1,1.1-0.4c0-0.3,0.3-0.4,0.7-0.4c0.4,0,0.7-0.1,0.7-0.3
		s0.5-0.3,1.1-0.3c0.8,0,1.1-0.1,1.1-0.4c0-0.3,0.3-0.4,1-0.4s1-0.1,1-0.4c0-0.3,0.3-0.4,1.1-0.4c0.6,0,1.1-0.1,1.1-0.3
		c0-0.2,0.5-0.3,1.1-0.3c0.8,0,1.1-0.1,1.1-0.4c0-0.3,0.3-0.4,1.4-0.4c0.8,0,1.4-0.1,1.4-0.3s0.7-0.3,1.6-0.3c1.2,0,1.6-0.1,1.6-0.4
		c0-0.3,0.3-0.4,1.4-0.4s1.4-0.1,1.4-0.4c0-0.3,0.4-0.4,2.1-0.4c1.2,0,2.1-0.1,2.1-0.3c0-0.2,1-0.3,2.3-0.3c1.8,0,2.3-0.1,2.3-0.4
		c0-0.4,0.5-0.4,3-0.4c1.8,0,3-0.1,3-0.3c0-0.2,4.6-0.3,13.3-0.3C218.4,75.9,223,76,223,76.2 M141.8,100.4c1,0.1,2.5,0.1,3.4,0
		c0.9-0.1,0.1-0.1-1.8-0.1C141.6,100.3,140.9,100.4,141.8,100.4 M138.8,100.8c0,0.4,0.3,0.4,0.9,0c0.3-0.2,0.3-0.3-0.2-0.3
		C139,100.5,138.8,100.6,138.8,100.8 M337.7,102.5c2.8,0.7,4.5,2.4,4.9,5.1c0.6,3.3-0.7,6.5-2.9,7.6c-0.6,0.3-1.2,0.6-1.5,0.7
		c-0.3,0.1-1.9,0.3-3.6,0.3h-3.1l-0.1,4.1l-0.1,4.1l-1.3,0.1c-0.7,0.1-1.3,0-1.5-0.2c-0.2-0.4-0.1-20.2,0.2-21.3
		C328.9,102.1,335.1,101.9,337.7,102.5 M331.5,109.2v4.4h2.9c4.3,0,5.7-1.1,5.7-4.5c0-3.3-1.5-4.4-6.3-4.4h-2.3V109.2 M123.6,119.5
		c-0.1,0.1-0.9,0.9-1.9,1.8c-1.5,1.3-3.5,3.5-3.1,3.5c0.2,0,1.3-1.1,1.4-1.3c0-0.1,0.4-0.6,0.9-1c1.8-1.5,3.2-2.9,3-3
		C123.8,119.4,123.6,119.4,123.6,119.5 M10.1,122.9c0,0.2,0.2,0.4,0.4,0.4c0.2,0,0.4-0.2,0.4-0.4c0-0.2-0.2-0.4-0.4-0.4
		C10.3,122.5,10.1,122.7,10.1,122.9 M9.5,124.2c-0.3,0.2-0.3,0.3-0.1,0.4c0.4,0.2,0.7,0,0.5-0.4C9.9,124.1,9.7,124,9.5,124.2
		 M117.6,125.6c-0.4,0.5-0.4,0.6-0.1,0.6c0.2,0,0.4-0.2,0.4-0.4c0-0.2,0.2-0.5,0.4-0.5c0.2-0.1,0.2-0.2,0.1-0.2
		C118.2,125.1,117.8,125.3,117.6,125.6 M116.4,127.3c-0.3,0.5-0.4,0.9-0.2,0.9s0.3-0.2,0.3-0.4c0-0.2,0.1-0.5,0.3-0.5
		c0.2-0.1,0.3-0.3,0.2-0.5C116.9,126.5,116.7,126.6,116.4,127.3 M338.7,137.8c0.2,0.2,0.6,0.4,0.8,0.4c0.5,0,2.3,1.5,2.3,2
		c0,0.1,0.1,0.3,0.3,0.4c0.9,0.3,0.9,5.8-0.1,7.1c-0.5,0.7-1.6,1.7-2.1,2c-0.4,0.2-0.3,0.6,0.7,2.5c2.5,5,3.3,7.1,3.1,7.5
		c-0.2,0.3-1.8,0.4-2.3,0.1c-0.4-0.2-2.1-3.9-2.1-4.5c0-0.2-0.1-0.4-0.2-0.5c-0.1-0.1-0.4-0.5-0.7-1.1c-0.3-0.6-0.7-1.5-1-2.1
		l-0.5-1.1h-2.6h-2.6l-0.1,4.6l-0.1,4.6l-1.1,0.1c-0.8,0.1-1.2,0-1.5-0.4c-0.5-0.7-0.5-21.2,0-21.8
		C329.2,137.2,338.1,137.3,338.7,137.8 M331.5,143.9v4l3.2-0.1c4.3-0.1,5.4-0.9,5.4-3.9c0-3-1.5-4-5.7-4h-2.8V143.9 M340.6,173.1
		c1.5,0.9,3.5,2.9,3.5,3.8c0,0.2,0.1,0.5,0.2,0.7c1.6,1.7,1.3,9.9-0.4,13.5c-2.1,4.3-7.6,5.7-11.9,3c-1.1-0.7-3.1-3.4-3.1-4.2
		c0-0.2-0.2-0.9-0.4-1.4c-1-2.4-0.5-8.8,0.9-11.9C331.2,172.5,336.6,170.8,340.6,173.1 M334.5,175.1c-5,2.7-4.9,15.1,0.1,17.2
		c2,0.8,4.4,0.3,5.9-1.3c2.5-2.7,2.6-11.9,0.1-14.6C339.1,174.8,336.1,174.1,334.5,175.1 M257.7,195.8c-0.1,0.1-0.5,0.3-0.8,0.4
		l-0.6,0.1l0.6,0c0.6,0,1.5-0.4,1.3-0.7C258,195.7,257.8,195.7,257.7,195.8 M336.9,207.6c2.8,0.6,3.9,1.6,2.9,2.7l-0.6,0.6l-1.3-0.7
		c-2.4-1.2-5.7-0.8-6.7,0.9c-1.3,2,0.1,4.2,3.9,6c7.5,3.5,9,9.8,2.9,12.5c-2.4,1.1-8.6,0.4-9.4-1c-0.7-1.3,1-2,2.7-1.1
		c1.5,0.8,4.7,0.7,6.1-0.2c3.1-2,1.5-5.8-3.3-7.8c-4.2-1.8-5.9-3.6-5.9-6.6C328.2,208.7,331.9,206.5,336.9,207.6"/>
	<path id="path1" class="st1" d="M139.8,101.3c-3.6,0.3-6.9,0.9-12,2.3c-5.8,1.6-11.5,4.9-17.5,10.2c-3.9,3.4-9.2,11.4-12,17.8
		c-0.4,0.9-0.8,2-1,2.4c-1.6,3.7-3.8,11.8-4.4,16.7c-0.2,1.3-0.5,3.3-0.6,4.4c-0.8,5.4-0.8,23.6,0,29c0.7,5,1,6.2,1.3,8
		c3.7,16.9,11.3,28.5,23.7,35.9c11.1,6.7,30.6,9.1,48.4,5.9c6.2-1.1,13.5-3.9,15.4-6l0.6-0.6l-1.5-3.1c-0.8-1.7-1.8-3.8-2.2-4.6
		c-0.8-1.8-0.8-1.8-4.2-0.1c-9.5,4.7-26,6.2-37,3.2c-2.3-0.6-3.3-0.9-3.9-1.2c-0.3-0.1-1.1-0.5-1.9-0.8c-20.1-8.1-30-35.1-24.9-67.9
		c2-12.8,6.9-23.6,14.2-30.8c4-4,6.3-5.5,11.7-7.9c9.1-3.9,25.1-3.1,39.8,2.1c2.8,1,4.1,0.5,4.1-1.6c0-0.1,0.4-1,0.9-2.1
		c0.5-1.1,1-2.3,1.2-2.7c0.2-0.4,0.4-0.9,0.6-1.2c0.4-0.9,0.3-1.2-0.7-1.5c-0.5-0.2-1.8-0.7-2.9-1.1c-4.8-1.8-6.3-2.3-11-3.3
		C157.5,101.5,146.7,100.9,139.8,101.3 M329.3,102.8c-0.3,0.3-0.3,2.8-0.3,10.8l0.1,10.4l1.1,0.1l1.1,0.1l0.1-4.1l0.1-4.1l3.3-0.1
		c5.8-0.3,7.7-1.8,7.7-6.5c0-3.5-0.7-4.9-3.4-6.2C337.5,102.5,329.8,102.2,329.3,102.8 M195,103.7c-0.5,1.2-0.2,128.7,0.3,129
		c0.7,0.4,12,0.4,12.6,0c0.4-0.2,0.4-6.4,0.3-52.7c-0.1-50.5,0-53.8,0.7-53.1c0.2,0.2,2.1,3.7,3.9,7c0.4,0.7,1,1.9,1.5,2.7
		c0.4,0.8,1.3,2.3,1.8,3.3c0.6,1,1.4,2.5,1.8,3.3c0.4,0.8,1,1.9,1.3,2.4c0.5,1,4.8,9,5.3,9.7c0.1,0.2,0.5,0.9,0.7,1.4
		c0.3,0.6,0.8,1.4,1.1,2c0.3,0.5,1.3,2.3,2.2,4c0.9,1.6,2,3.8,2.6,4.8c0.6,1,1,1.9,1,1.9s0.6,1.1,1.2,2.3c0.7,1.2,1.9,3.4,2.7,4.9
		s1.7,3.2,2.1,3.9c0.7,1.2,1.9,3.5,3.1,5.7c6.7,12.7,18.4,12.9,25.2,0.4c0.6-1,1.4-2.5,1.8-3.3c0.4-0.8,1.3-2.4,1.9-3.5
		c1-1.9,1.9-3.5,3.4-6.2c0.3-0.5,1-1.7,1.5-2.7c2.5-4.6,3.1-5.7,3.6-6.6c0.3-0.5,1.1-2,1.7-3.2c0.7-1.3,1.5-2.9,1.9-3.6
		c0.4-0.7,1.2-2.2,1.9-3.4c0.6-1.2,1.6-3,2.2-4.1c0.6-1.1,1.1-2,1.1-2.1c0-0.1,0.3-0.6,0.7-1.2c0.4-0.6,1.4-2.4,2.3-4.1
		c0.9-1.7,1.8-3.4,2-3.7c0.2-0.3,0.9-1.6,1.5-2.8c0.6-1.2,1.5-2.8,2-3.7c0.5-0.9,1.4-2.5,2-3.6c0.7-1.4,1.2-2,1.4-1.8
		c0.2,0.2,0.3,17.1,0.2,52.6c-0.1,48.7-0.1,52.4,0.4,52.8c0.5,0.5,12.1,0.7,12.9,0.2c0.3-0.2,0.3-13.3,0.3-64.6l-0.1-64.4l-7.4-0.1
		l-7.4-0.1l-1.4,2.5c-0.7,1.4-1.7,3.1-2.2,3.9c-0.4,0.8-1.4,2.5-2,3.7c-1.4,2.5-2.7,4.9-3.5,6.4c-0.3,0.5-1.1,2-1.7,3.1
		c-0.6,1.2-1.7,3.1-2.4,4.3c-0.7,1.2-1.5,2.6-1.8,3.2s-1,1.9-1.6,2.9c-0.6,1-1.5,2.7-2,3.7c-0.6,1-1.2,2.3-1.5,2.8
		c-0.3,0.5-0.9,1.7-1.5,2.6c-0.5,0.9-1.2,2.2-1.5,2.7c-0.3,0.6-0.9,1.7-1.4,2.6c-0.8,1.5-2.1,3.8-3.1,5.6c-0.3,0.5-1,1.8-1.5,2.8
		c-0.6,1-1.5,2.7-2,3.7c-0.6,1-1.2,2.3-1.5,2.8c-0.3,0.5-0.9,1.7-1.5,2.6c-0.5,0.9-1,1.8-1.1,2c-0.1,0.2-0.8,1.4-1.5,2.7
		c-0.7,1.3-1.6,3-2,3.7c-0.4,0.7-1.1,2-1.6,2.8c-2.6,4.8-4.3,5.2-6.8,1.7c-1.3-1.8-0.8-1-4.8-8.3c-0.9-1.7-2-3.6-3.1-5.6
		c-0.8-1.5-2.5-4.5-3.3-6c-0.4-0.7-0.9-1.7-1.2-2.1c-0.6-1.1-1.9-3.4-3.5-6.3c-0.7-1.3-1.4-2.7-1.7-3.1c-1.5-2.8-2.4-4.3-3.4-6.3
		c-0.7-1.2-1.3-2.4-1.4-2.5s-0.7-1.2-1.4-2.4c-2.3-4.2-3-5.6-3.6-6.7c-1.2-2.1-1.8-3.3-2.9-5.2c-0.6-1.1-1.3-2.4-1.7-3.1
		c-0.4-0.6-1.3-2.3-2-3.7c-0.8-1.4-1.6-3-2-3.6c-0.3-0.5-0.9-1.5-1.2-2.1c-0.3-0.6-0.6-1.2-0.7-1.3c-0.1-0.1-0.5-0.8-0.9-1.6
		c-0.4-0.8-1.2-2.2-1.7-3.2l-1-1.8h-7.4C198.3,103.6,195,103.7,195,103.7 M337.8,104.9c1.7,0.7,2.3,1.9,2.3,4.4
		c0,3.7-1.2,4.6-5.9,4.6h-3.1v-4.5c0-2.5,0.1-4.6,0.2-4.7C331.8,104.3,336.8,104.5,337.8,104.9 M329.1,137.8
		c-0.4,0.4-0.2,21.1,0.2,21.5c1.4,1.2,1.7,0.5,1.9-4.4l0.1-4.6h2.9h2.9l0.8,1.6c1.7,3.5,3.1,6.5,3.1,6.8c0,0.5,1.3,1,1.8,0.8
		c0.8-0.3,0.8-0.6-2-6.4l-1.5-3.3l1-0.8c3-2.5,3.1-7.9,0.2-9.9C338.7,137.9,330,136.9,329.1,137.8 M338.6,140.2
		c2.4,1.7,2.3,6.2-0.2,7.5c-0.8,0.4-1.6,0.5-4,0.4l-3-0.1l-0.1-3.8c0-2.1,0-4,0.1-4.2C331.6,139.3,337.6,139.6,338.6,140.2
		 M333,173.2c-7.3,3.7-6.1,20,1.5,21.5c7.1,1.5,11.4-4.2,10.3-13.5C344,174,338.6,170.4,333,173.2 M339,174.9c2.9,1.4,4,5,3.4,11.3
		c-0.7,8.3-9.4,9.6-11.5,1.7C328.8,179.5,333.3,172.2,339,174.9"/>
	<path id="path2" class="st2" d="M17.9,111.1c-0.3,0.3-0.5,0.7-0.5,0.8c0,0.1-0.2,0.3-0.4,0.4c-0.2,0.1-0.4,0.4-0.4,0.7
		c0,0.3-0.3,0.8-0.7,1c-0.4,0.3-0.7,0.8-0.7,1.1s-0.1,0.5-0.3,0.5c-0.2,0-0.3,0.2-0.3,0.4s-0.2,0.4-0.4,0.4c-0.3,0-0.4,0.3-0.4,1.1
		c0,0.6-0.1,1.1-0.3,1.1c-0.2,0-0.2-0.2-0.2-0.4c0.1-0.2,0-0.4-0.1-0.4c-0.2,0-0.2,0.3-0.1,0.9c0.2,0.9-0.5,2.8-1.1,2.8
		c-0.1,0-0.2,0.2-0.2,0.4c0,0.5-0.9,2.3-1.2,2.5c-0.1,0.1-0.2,0.5-0.2,1c0.1,0.9,0.1,0.9,4.5,1.5c1,0.1,1.9,0.4,2.1,0.5
		c0.3,0.2,1.4,0.3,6.9,0.9c1.6,0.2,3.9,0.4,5.1,0.6c5.5,0.8,27.8-0.1,30.5-1.1c5.3-2.1,7-8.9,3.4-13.2c-0.6-0.7-2.8-2.2-3.3-2.2
		c-0.2,0-0.5-0.1-0.7-0.3c-0.3-0.3-2-0.3-9.2,0.3c-10.4,0.8-27.8-0.2-30.6-1.7C18.4,110.4,18.5,110.4,17.9,111.1 M6.9,132
		c-0.4,0.2-0.6,0.6-0.6,1.1c0,0.6-0.1,0.8-0.4,0.7c-0.3-0.1-0.4,0.1-0.2,1c0.1,0.9,0.1,1.1-0.3,1.1c-0.3,0-0.5,0.3-0.5,1
		c0,0.7-0.1,1-0.4,1c-0.3,0-0.4,0.3-0.4,1c0,0.5-0.1,1-0.3,1c-0.2,0-0.3,0.2-0.3,0.5s-0.2,0.7-0.4,0.9c-0.2,0.2-0.4,0.8-0.4,1.4
		c0,0.6-0.1,1.1-0.3,1.2c-0.2,0.1-0.3,0.9-0.4,2l-0.1,1.9l0.9,0.1c0.5,0,1.1,0.2,1.4,0.3s1.3,0.5,2.1,0.7c0.9,0.3,2.1,0.6,2.7,0.8
		c1.2,0.4,2.1,0.6,5.3,1.4c1,0.3,2.3,0.6,2.9,0.7c1.2,0.3,3.2,0.7,5.4,1.1c0.9,0.1,2.2,0.4,3,0.5c8.1,1.6,25.1,2.3,31.7,1.3
		c1.6-0.2,3.3-0.4,3.9-0.4c9.3-0.1,12.1-12.5,3.6-16.3c-1.5-0.7-4.4-0.7-8.2-0.1c-6,0.9-20.6,0.3-28.6-1.2c-1.3-0.2-3.1-0.6-3.9-0.7
		c-0.8-0.1-1.6-0.3-1.9-0.4c-0.2-0.1-1.5-0.4-2.7-0.6c-1.3-0.3-2.8-0.7-3.4-0.9c-0.6-0.2-2.3-0.7-3.7-1.1c-1.4-0.4-3.1-0.9-3.6-1.2
		c-0.6-0.2-1.1-0.4-1.1-0.4C7.6,131.7,7.3,131.8,6.9,132"/>
	<path id="path3" class="st3" d="M0.2,156.2c-0.4,10-0.2,13.6,0.8,13.6c0.2,0,1.2,0.4,2.3,0.9c2.2,1,2.6,1.1,4.4,1.8
		c0.7,0.3,1.5,0.6,1.8,0.7c0.3,0.1,0.7,0.3,1,0.3c0.3,0,0.8,0.2,1.2,0.4c0.4,0.2,1.5,0.6,2.3,0.9c0.9,0.3,1.8,0.6,2.1,0.7
		c0.3,0.1,0.9,0.3,1.3,0.4c0.4,0.1,1.1,0.3,1.6,0.4c0.5,0.2,1.4,0.4,2.1,0.6c0.7,0.2,1.9,0.5,2.7,0.7c0.8,0.2,1.8,0.5,2.3,0.6
		c0.5,0.1,1.8,0.4,2.9,0.6c2.2,0.5,3.9,0.7,7.7,1.2c1.4,0.2,3.2,0.5,4,0.6c5.3,1,18.1,0.8,24.8-0.3c7.9-1.3,9.3-12.1,2-15.6
		c-1.3-0.6-6.1-0.7-8.2-0.1c-2,0.6-19.4,0-20.5-0.7c-0.1-0.1-1.2-0.3-2.3-0.4c-1.1-0.1-3-0.5-4.2-0.7c-1.2-0.2-2.7-0.6-3.4-0.7
		c-0.7-0.1-1.7-0.4-2.1-0.5c-0.5-0.2-1.4-0.4-2.1-0.6c-2.4-0.6-4.4-1.2-5-1.5c-0.3-0.1-1.4-0.5-2.4-0.9c-3-1-3.7-1.3-3.9-1.5
		c-0.1-0.1-0.4-0.2-0.6-0.2c-0.4,0-1.7-0.6-5.4-2.3c-1-0.5-1.9-0.8-2.1-0.8c-0.2,0-0.3-0.1-0.3-0.3s-0.1-0.3-0.3-0.3
		c-0.6,0-3.4-1.4-3.4-1.7c0-0.2-0.2-0.3-0.4-0.3C0.5,151.3,0.3,152.4,0.2,156.2 M158.4,283.7c0.4,0.1,0.9,0.1,1.3,0
		c0.4-0.1,0.1-0.1-0.6-0.1C158.3,283.6,158,283.6,158.4,283.7 M161.4,283.7c0.4,0.1,1.1,0.1,1.6,0c0.4-0.1,0.1-0.1-0.8-0.1
		S161,283.7,161.4,283.7 M265,285.1c0.4,0.1,1.1,0.1,1.4,0c0.4-0.1,0-0.1-0.8-0.1C264.9,285,264.6,285.1,265,285.1"/>
	<path id="path4" class="st4" d="M0.2,177.4c0.1,1.7,0.3,3.3,0.5,3.8c0.2,0.5,0.4,1.4,0.4,2.2c0,0.7,0.2,1.7,0.4,2.2
		c0.2,0.4,0.4,1.2,0.4,1.7c0,0.5,0.1,1,0.3,1.1c0.1,0.1,0.3,0.9,0.4,1.6c0.1,0.8,0.2,1.3,0.4,1.2c0.2,0,0.4,0.3,0.4,1.1
		c0,0.6,0.1,1.1,0.3,1.1c0.2,0,0.3,0.4,0.3,0.8c0,0.7,0.1,0.8,0.7,0.7c0.4-0.1,1.2,0.1,1.8,0.5c0.6,0.3,1.7,0.9,2.4,1.1
		c0.7,0.3,2.1,0.9,3,1.3c2.6,1.2,2.8,1.2,4.3,1.8c0.8,0.3,1.6,0.6,1.7,0.7c0.2,0.2,5.2,1.8,8.9,2.9c0.9,0.3,7,1.8,9.3,2.3
		c0.7,0.2,2.5,0.5,4,0.7c1.5,0.2,3.5,0.6,4.4,0.7c8.6,1.4,22.4,1.3,27.8-0.2c1.9-0.5,4.4-2.9,4.7-4.4c0.1-0.4,0.3-0.9,0.4-1
		c1.2-0.7-0.1-6.4-1.9-8.4c-2.3-2.6-2.8-2.7-11.1-2.7c-6.7,0-12.8-0.4-17-1c-1-0.1-3.4-0.5-5.3-0.7c-1.9-0.3-3.9-0.6-4.6-0.7
		c-0.6-0.1-1.9-0.4-2.9-0.6c-1.7-0.3-2.3-0.4-5.6-1.2c-1-0.2-2.4-0.6-3.1-0.7c-0.7-0.2-1.6-0.4-2-0.6c-0.4-0.1-1.5-0.5-2.4-0.7
		c-2-0.6-2.4-0.7-5.3-1.7c-3.7-1.3-7.7-3-11.4-4.9c-2-1-3.7-1.8-3.9-1.8c-0.2,0-0.4-0.2-0.6-0.4C0.2,174.6,0.2,175.7,0.2,177.4
		 M7.5,199.8c-0.7,0.2-0.3,0.9,0.5,0.9c0.5,0,2.5,0.8,5.8,2.4c6,3,7.3,3.6,12.1,5.5c6.4,2.6,15.1,5.3,19.5,6.2
		c0.7,0.1,2.3,0.4,3.6,0.7c1.3,0.2,3.3,0.6,4.5,0.7c1.2,0.2,3.3,0.4,4.6,0.6c1.3,0.2,6,0.3,10.5,0.4c4.5,0.1,8.5,0.2,9,0.4
		c5.8,1.8,7.3,9.4,2.8,13.7c-0.5,0.5-1.1,0.9-1.2,0.9s-0.6,0.2-1.1,0.4c-0.7,0.4-2.4,0.4-9.7,0.4c-8.6,0-11.3-0.2-18-1.2
		c-2.7-0.4-8.7-1.7-10-2.2c-0.3-0.1-1.3-0.4-2.2-0.7c-0.9-0.3-1.8-0.6-2.1-0.7s-1.1-0.5-1.9-0.7c-4.1-1.6-8.1-3.8-12.2-6.8
		c-1.3-0.9-2.6-1.7-2.9-1.7c-0.5,0-0.4,0.1,0.2,0.4c0.6,0.3,4.2,2.8,5.6,3.8c0.5,0.4,2.5,1.5,3.9,2.2c0.7,0.3,1.3,0.7,1.4,0.8
		c0.1,0.1,0.7,0.4,1.4,0.7c1.6,0.7,3.1,1.3,3.8,1.6c0.3,0.1,0.7,0.2,0.9,0.2c0.2,0,0.8,0.2,1.2,0.4c0.5,0.2,1.1,0.4,1.4,0.4
		c0.3,0,0.7,0.1,0.8,0.2C40,230,42,230.5,44,231c0.7,0.1,2.2,0.5,3.3,0.7c1.1,0.2,3,0.6,4.1,0.7c1.2,0.1,3,0.4,4.1,0.6
		c3.9,0.6,22.1,0.5,23.3-0.2c6.8-3.9,6.2-13.1-1.1-15.8c-0.7-0.3-3.2-0.4-8.6-0.4c-4.2,0-8.5-0.1-9.7-0.3c-1.2-0.2-3.2-0.4-4.6-0.5
		c-1.3-0.1-3.5-0.5-4.7-0.7c-1.3-0.2-2.9-0.6-3.7-0.7c-0.8-0.2-2-0.4-2.7-0.6c-0.7-0.2-1.8-0.5-2.4-0.6c-3.3-0.9-8.6-2.5-9.8-3
		c-0.5-0.2-1-0.4-1.2-0.4c-0.2,0-0.5-0.1-0.8-0.3c-0.3-0.1-1.1-0.5-1.8-0.8c-3.7-1.4-5.7-2.3-10.6-4.7c-2-1-3.8-1.7-3.9-1.7
		c-0.2,0-0.3-0.1-0.3-0.3c0-0.2-0.1-0.3-0.3-0.3c-0.2,0-1.3-0.5-2.5-1.1C8.8,200.2,7.7,199.7,7.5,199.8 M7.2,201.6
		c0.1,0.4,0.2,0.6,0.4,0.6c0.4-0.1,0.3-1-0.1-1.1C7.2,201,7.1,201.1,7.2,201.6 M332.7,207.6c-3.1,0.6-4.5,2.3-4.5,5.1
		c0,3.2,0.8,4.1,6.6,7c4.5,2.3,5.6,5.5,2.5,7.7c-1.1,0.8-5,0.8-6.4,0.1c-1.3-0.7-1.8-0.6-2.1,0.2c-0.9,1.9,5.3,3.3,8.7,1.9
		c6.5-2.5,5.1-8.9-2.8-12.5c-3.7-1.7-5-3.9-3.7-6.1c0.9-1.6,4.4-2,6.8-0.9c1.1,0.5,1.4,0.5,1.7,0.3c1.2-1-0.3-2.3-3.3-2.8
		C334.2,207.2,334.4,207.2,332.7,207.6 M168.1,283.7c0.4,0.1,0.9,0.1,1.3,0c0.4-0.1,0.1-0.1-0.6-0.1
		C168,283.6,167.7,283.6,168.1,283.7 M211.5,284.3c0.4,0.1,0.9,0.1,1.3,0c0.4-0.1,0.1-0.1-0.6-0.1
		C211.4,284.2,211.1,284.2,211.5,284.3"/>
	<path id="path5" class="st5" d="M7.7,200.7c-0.6,0.2-0.6,0.2-0.2,0.4c0.4,0.2,0.5,0.4,0.3,1.2c-0.2,0.8-0.1,1,0.2,0.8
		c0.3-0.1,0.4,0.1,0.5,0.9c0,0.6,0.2,1.1,0.3,1.2c0.2,0.1,0.3,0.3,0.3,0.7s0.2,0.6,0.4,0.7c0.2,0.1,0.4,0.5,0.4,0.8
		c0,0.4,0.2,0.7,0.4,0.7c0.3,0,0.4,0.3,0.4,0.7c0,0.4,0.1,0.7,0.3,0.7c0.2,0,0.3,0.2,0.3,0.4c0,0.2,0.2,0.4,0.4,0.4
		c0.2,0,0.4,0.3,0.4,0.6c0,0.3,0.3,0.9,0.7,1.4c0.4,0.4,0.7,0.9,0.7,1.1c0,0.2,0.2,0.4,0.4,0.5c0.2,0.1,0.4,0.3,0.4,0.5
		c0,0.2,0.3,0.6,0.7,0.9c0.4,0.3,0.7,0.7,0.7,0.9c0,0.8,2.4,2.9,3.1,2.8c0.4-0.1,1.3,0.3,3,1.5c4.1,3,8.1,5.2,12.2,6.8
		c0.7,0.3,1.5,0.6,1.9,0.7s1.3,0.4,2.1,0.7c0.9,0.3,1.8,0.6,2.2,0.7c1.3,0.5,7.2,1.8,10,2.2c6.7,1,9.4,1.2,18,1.2
		c7.3,0,9-0.1,9.7-0.4c0.5-0.2,0.9-0.4,1.1-0.4s0.7-0.4,1.2-0.9c4.5-4.3,2.9-11.9-2.8-13.7c-0.5-0.2-4.5-0.3-9-0.4
		c-4.5-0.1-9.2-0.2-10.5-0.4c-1.3-0.2-3.4-0.4-4.6-0.6c-1.2-0.2-3.2-0.5-4.5-0.7c-1.3-0.2-2.9-0.6-3.6-0.7
		c-4.4-0.8-13.2-3.6-19.5-6.2c-4.7-1.9-6.1-2.5-12.1-5.5C7.8,200.2,8.6,200.5,7.7,200.7"/>
	<path id="path6" class="st6" d="M139.8,100.7c-0.1,0.1-1.4,0.3-2.8,0.4c-1.4,0.1-2.7,0.3-2.9,0.5c-0.2,0.2-0.9,0.4-1.6,0.4
		c-1.9,0.2-4.1,0.7-4.4,1.1c-0.2,0.2-0.6,0.3-1.1,0.3c-0.4,0-0.9,0.1-1,0.3s-0.4,0.3-0.6,0.3c-0.4,0-1.9,0.5-3.3,1.3
		c-0.4,0.2-1,0.4-1.2,0.4c-0.2,0-0.4,0.1-0.4,0.3s-0.3,0.3-0.7,0.4c-0.4,0.1-0.7,0.3-0.7,0.5s-0.2,0.3-0.4,0.3
		c-0.4,0-3.8,2.1-4.2,2.6c-0.1,0.1-0.4,0.4-0.8,0.6c-2.3,1.6-5.8,5-8.1,8c-0.5,0.7-1.1,1.3-1.2,1.4c-0.2,0.2-2.4,3.5-2.7,4
		c-0.1,0.2-0.5,0.9-0.8,1.4c-0.9,1.4-2.2,4.2-2.2,4.6c0,0.2-0.1,0.3-0.3,0.3s-0.3,0.2-0.3,0.4c0,0.2-0.2,0.8-0.4,1.2
		c-0.2,0.4-0.6,1.3-0.9,1.9c-0.3,0.6-0.6,1.4-0.7,1.6c-0.1,0.3-0.3,0.8-0.3,1.1c0,0.4-0.2,0.9-0.4,1.2c-0.2,0.3-0.4,0.8-0.4,1.2
		s-0.1,0.7-0.3,0.8s-0.3,0.6-0.3,1.1c0,0.5-0.2,1.2-0.4,1.6c-0.2,0.4-0.4,1.1-0.4,1.6c0,0.5-0.1,1.2-0.3,1.4
		c-0.3,0.6-0.9,3.5-1.2,6.3c-0.1,1.2-0.4,3-0.5,4.1c-0.4,3-0.7,18.1-0.4,21.4c0.3,2.7,0.3,2.5,0.2-2.6c-0.1-6.6,0.2-16.7,0.6-19.4
		c0.2-1.1,0.4-3.1,0.6-4.4c0.3-2.3,0.7-4.1,1.6-8c0.5-2,2.2-7.3,2.8-8.7c0.2-0.5,0.7-1.6,1-2.4c2.8-6.5,8.1-14.4,12-17.8
		c5.5-4.8,9-7,14.5-9.1c4.1-1.5,5.5-1.9,11-3c5.7-1.1,20.2-0.6,28.1,1.1c4.7,1,6.2,1.4,11,3.3c1.1,0.4,2.4,0.9,2.9,1.1
		c1,0.3,1.1,0.7,0.7,1.5c-0.1,0.3-0.4,0.8-0.6,1.2c-0.2,0.4-0.7,1.6-1.2,2.7c-0.5,1.1-0.9,2-0.9,2.1c0,2.1-1.3,2.6-4.1,1.6
		c-9.1-3.2-16.2-4.5-25.6-4.5c-5.4,0-10.6,0.9-14.1,2.4c-8.9,3.9-14.9,9.6-19.6,18.7c-9.6,18.6-10.3,49.3-1.5,67.8
		c4.4,9.4,11.8,16.8,20.1,20.1c2.2,0.9,2.4,1,3.9,1.4c3,0.9,4.2,1.1,4.3,1c0.2-0.2-1.8-0.8-2.5-0.8c-0.3,0-0.7-0.1-1-0.3
		c-0.3-0.1-1.2-0.5-2.1-0.7c-9.3-2.9-17.1-10.2-22.2-20.6c-0.5-1.1-1.2-2.4-1.4-2.8c-0.2-0.4-0.4-1-0.4-1.2s-0.2-0.7-0.4-1.2
		c-0.2-0.4-0.4-1-0.4-1.3c0-0.3-0.1-0.6-0.3-0.7c-0.2-0.1-0.3-0.5-0.3-0.9c0-0.4-0.2-1-0.3-1.3c-0.3-0.6-0.6-2-1.1-5.4
		c-0.1-1.1-0.4-2.1-0.5-2.4c-0.9-1.8-0.9-26.9,0-28.7c0.2-0.3,0.4-1.4,0.5-2.6c0.4-3.2,0.8-5.2,1.1-5.8c0.2-0.3,0.3-1,0.3-1.4
		s0.1-0.9,0.3-1c0.1-0.1,0.3-0.7,0.5-1.3c0.1-0.6,0.3-1.2,0.5-1.3c0.1-0.1,0.3-0.4,0.3-0.7c0-0.3,0.2-0.9,0.4-1.3
		c0.2-0.4,0.6-1.2,0.8-1.7c0.5-1.3,1.2-2.8,1.5-3.4c1-2.1,2.1-4.1,2.3-4.2c0.1-0.1,0.2-0.2,0.2-0.3c0-1.3,8.2-10.6,9.4-10.6
		c0.1,0,0.3-0.2,0.4-0.4c0.1-0.2,0.4-0.4,0.6-0.4c0.2,0,0.4-0.1,0.4-0.3c0-0.2,0.2-0.3,0.4-0.3c0.2,0,0.5-0.2,0.6-0.4
		c0.1-0.2,0.4-0.4,0.7-0.4c0.3,0,0.6-0.1,0.6-0.2c0.1-0.2,1.2-0.7,3-1.5c0.5-0.2,1.2-0.5,1.7-0.7c0.5-0.2,1.2-0.4,1.6-0.5
		c1.3-0.3,3.3-0.8,3.9-1c0.5-0.2,5.2-0.7,6.9-0.7c3.1,0,11.6,0.5,11.7,0.7c0.1,0.1,0.8,0.2,1.7,0.2c0.8,0,2.1,0.2,2.7,0.4
		c0.7,0.2,1.6,0.4,2,0.4c0.5,0,1,0.1,1.3,0.3c0.7,0.4,3.4,1.2,4,1.2c0.3,0,0.8,0.2,1.1,0.4c0.3,0.2,0.8,0.4,1.2,0.4
		c0.4,0,0.7,0.1,0.8,0.3c0.1,0.2,0.5,0.3,0.8,0.3c0.3,0,0.9,0.2,1.2,0.4c1.3,1,1.5,0.7,3.2-3.2c0.2-0.5,0.7-1.6,1.1-2.4
		c0.4-0.9,0.7-1.7,0.7-1.9c0-0.2,0.2-0.6,0.4-0.8c1.1-1.1,0.3-2.1-2.9-3.2c-1.1-0.4-3.1-1.2-3.7-1.4c-1.3-0.6-3.2-1.1-3.9-1.1
		c-0.4,0-1-0.2-1.3-0.4c-0.3-0.2-1-0.4-1.6-0.4s-1.1-0.1-1.2-0.3c-0.1-0.2-0.9-0.3-1.7-0.3c-0.8,0-1.9-0.2-2.3-0.3
		C158.8,101,140.3,100.2,139.8,100.7 M328.8,102.9c-0.2,1.1-0.4,21-0.2,21.3c0.1,0.2,0.7,0.3,1.5,0.2l1.3-0.1l0.1-4.1l0.1-4.1h3.1
		c1.7,0,3.4-0.1,3.6-0.3c0.3-0.1,0.9-0.5,1.5-0.7c0.9-0.5,2.8-2.6,2.5-2.9c-0.1-0.1-0.4,0.3-0.8,0.9c-1.2,1.8-2.9,2.5-6.8,2.7
		l-3.3,0.1l-0.1,4.1l-0.1,4.1l-1.1-0.1l-1.1-0.1l-0.1-10.4c-0.1-8,0-10.5,0.3-10.8c0.3-0.4,1.1-0.4,4.6-0.3c2.4,0.1,4,0,3.6-0.1
		C335.5,101.9,328.9,102.2,328.8,102.9 M300.3,103.1c-2.3,0.2-2.5,0.3-3.5,2.1c-1.2,2.2-2.2,4-2.4,4.3c-0.1,0.1-0.2,0.5-0.2,0.8
		s-0.1,0.5-0.3,0.5c-0.2,0-0.4,0.3-0.5,0.7c-0.1,0.4-0.3,0.7-0.4,0.7c-0.1,0-0.3,0.2-0.3,0.4c0,0.2-0.2,0.6-0.4,0.8
		c-0.2,0.2-0.6,0.9-0.9,1.4c-0.3,0.6-0.6,1.1-0.8,1.2c-0.2,0.1-0.3,0.4-0.3,0.7c0,0.3-0.2,0.6-0.4,0.7c-0.2,0.1-0.4,0.4-0.4,0.7
		s-0.1,0.6-0.3,0.6c-0.2,0-0.3,0.2-0.3,0.4c0,0.2-0.2,0.6-0.4,0.7c-0.2,0.2-0.4,0.6-0.4,0.9c0,0.3-0.1,0.6-0.2,0.6
		c-0.1,0.1-0.5,0.7-0.9,1.4c-0.4,0.7-1.2,2.2-1.8,3.3s-1.4,2.6-1.8,3.3c-0.4,0.7-0.7,1.3-0.8,1.4c-0.3,0.3-1.1,2.1-1.1,2.5
		c0,0.2-0.1,0.4-0.3,0.4c-0.2,0-0.5,0.6-0.9,1.3c-0.3,0.7-0.7,1.3-0.9,1.4c-0.2,0.1-0.3,0.4-0.3,0.7c0,0.3-0.1,0.6-0.3,0.6
		s-0.4,0.3-0.5,0.7c-0.1,0.4-0.3,0.7-0.4,0.7s-0.3,0.2-0.3,0.6c0,0.3-0.1,0.6-0.3,0.7c-0.2,0.1-0.6,0.7-0.9,1.4
		c-1.1,2.1-1.9,3.7-2.2,4c-0.2,0.2-0.3,0.5-0.3,0.8s-0.1,0.5-0.3,0.5c-0.1,0-0.4,0.3-0.5,0.6c-0.1,0.4-0.3,0.7-0.4,0.8
		c-0.1,0.1-0.6,1-1.1,2c-0.5,1-1.2,2.2-1.4,2.7c-0.8,1.4-2.4,4.2-3.1,5.7c-0.4,0.8-0.8,1.5-0.9,1.6c-0.1,0.1-0.5,0.7-0.8,1.4
		c-0.3,0.7-1,1.9-1.4,2.7c-0.5,0.8-1.1,2-1.4,2.6c-0.3,0.7-0.7,1.3-0.9,1.4c-0.2,0.1-0.3,0.4-0.3,0.7c0,0.3-0.1,0.6-0.3,0.6
		c-0.2,0-0.4,0.3-0.5,0.7c-0.1,0.4-0.3,0.7-0.4,0.7c-0.1,0-0.4,0.6-0.8,1.3s-0.7,1.3-0.8,1.3c-0.1,0-0.2,0.3-0.2,0.6
		c0,0.3-0.1,0.6-0.3,0.7c-0.1,0.1-0.6,0.8-0.9,1.5c-1.6,3.1-3.9,4.6-5,3.1c-0.2-0.3-0.7-0.8-1-1.2c-0.3-0.4-0.6-0.8-0.6-0.9
		c0-0.1-0.2-0.4-0.4-0.6c-0.4-0.4-1.3-2-2.2-3.9c-0.3-0.7-0.7-1.3-0.8-1.4c-0.1-0.1-0.6-1-1.2-2.1c-0.5-1.1-1.1-1.9-1.2-1.9
		s-0.2-0.2-0.2-0.4c0-0.2-0.3-0.9-0.7-1.5c-0.4-0.6-0.8-1.3-0.9-1.5c-0.1-0.2-0.4-0.8-0.7-1.3c-0.3-0.5-1-1.7-1.5-2.7
		c-0.5-1-1-1.9-1.1-2c-0.1-0.1-0.4-0.7-0.8-1.4c-0.4-0.7-1.2-2.2-1.8-3.3s-1.3-2.3-1.4-2.6s-0.4-0.7-0.6-0.8
		c-0.2-0.1-0.3-0.4-0.3-0.7c0-0.3-0.1-0.6-0.2-0.6c-0.1-0.1-0.7-1-1.2-2s-1.1-1.9-1.2-1.9c-0.1,0-0.2-0.2-0.2-0.4
		c0-0.2-0.3-0.9-0.7-1.6c-0.4-0.6-0.7-1.2-0.7-1.3c0-0.1-0.5-1-1.1-2s-1.1-2-1.1-2.3c0-0.2-0.1-0.5-0.3-0.6
		c-0.2-0.1-0.5-0.7-0.9-1.4c-0.3-0.7-1-1.8-1.4-2.6c-0.5-0.8-1.1-2-1.5-2.7c-0.4-0.7-0.7-1.3-0.8-1.4c-0.1-0.1-0.4-0.7-0.8-1.4
		s-1.2-2.2-1.8-3.3s-1.4-2.6-1.8-3.3c-0.4-0.7-0.7-1.3-0.8-1.4c-0.1-0.1-0.4-0.7-0.8-1.4c-0.4-0.7-1-2-1.5-2.9
		c-0.5-0.9-1.4-2.6-2.1-3.9c-0.7-1.3-1.5-2.8-1.9-3.4c-0.4-0.6-0.9-1.6-1.2-2.2c-1.2-2.4-0.8-2.3-8.9-2.3c-5.6,0-7.3,0.1-7.6,0.4
		c-0.7,0.7-0.5,128.9,0.2,129.4c0.8,0.6,12.6,0.6,13.4,0c0.5-0.3,0.5-3.9,0.6-52.8l0.1-52.5l1,1.8c0.5,1,1.3,2.4,1.7,3.2
		c0.4,0.8,0.8,1.5,1,1.5c0.1,0.1,0.2,0.3,0.2,0.6c0,0.3,0.1,0.6,0.3,0.7c0.1,0.1,0.4,0.5,0.7,0.9c0.2,0.4,0.8,1.5,1.3,2.4
		c0.5,0.9,1.4,2.6,2.1,3.9c0.7,1.2,1.6,2.9,2,3.7c0.4,0.8,1.1,2,1.4,2.7c0.4,0.7,0.7,1.3,0.8,1.4c0.1,0.1,0.5,0.8,1,1.7
		c1.5,2.8,3.2,6.1,4.1,7.7c0.5,0.9,1.4,2.5,1.9,3.6c0.6,1.1,1.4,2.6,1.8,3.4c0.4,0.8,1.1,2,1.5,2.7c0.4,0.7,0.8,1.3,0.9,1.4
		c0.1,0.1,0.2,0.3,0.2,0.6c0,0.3,0.1,0.6,0.3,0.8c0.4,0.4,1.3,2.2,2.3,4.2c0.4,0.7,0.7,1.4,0.9,1.4c0.1,0,0.2,0.2,0.2,0.5
		c0,0.3,0.1,0.6,0.3,0.8s0.8,1.3,1.4,2.5c0.7,1.2,1.6,3,2.1,3.9c0.5,0.9,1,1.8,1.2,2.2c1.3,2.4,5.4,7,6.3,7c0.2,0,0.5,0.2,0.7,0.4
		c0.2,0.2,0.6,0.4,0.9,0.4c0.3,0,0.9,0.2,1.2,0.5c0.9,0.6,6.4,0.5,7-0.1c0.2-0.2,0.6-0.4,1-0.4c0.4,0,0.7-0.1,0.8-0.3
		c0.1-0.2,0.6-0.5,1.1-0.7c1.6-0.8,5-4.6,6-6.7c0.1-0.2,0.4-0.8,0.7-1.3c0.6-1,2.3-4,2.7-4.9c0.2-0.3,0.4-0.8,0.5-1
		c0.1-0.2,0.3-0.6,0.4-0.9c0.1-0.2,0.5-0.9,0.9-1.5c0.4-0.6,0.7-1.3,0.7-1.5c0-0.2,0.1-0.4,0.2-0.4c0.3,0,1.2-1.7,1.2-2.2
		c0-0.2,0.1-0.4,0.3-0.4c0.2,0,0.4-0.3,0.5-0.7c0.1-0.4,0.3-0.7,0.4-0.7c0.1,0,0.3-0.2,0.3-0.5s0.2-0.7,0.4-0.9
		c0.2-0.2,0.4-0.6,0.4-0.9s0.1-0.5,0.3-0.5c0.2,0,0.4-0.3,0.5-0.7c0.1-0.4,0.3-0.7,0.4-0.7c0.1,0,0.3-0.3,0.3-0.6s0.1-0.6,0.3-0.6
		c0.2,0,0.4-0.3,0.5-0.7c0.1-0.4,0.3-0.7,0.4-0.7c0.1,0,0.3-0.2,0.3-0.5s0.2-0.7,0.4-0.9c0.2-0.2,0.4-0.5,0.4-0.6
		c0-0.1,0.3-0.8,0.7-1.4c0.4-0.6,0.7-1.3,0.7-1.6c0-0.2,0.1-0.4,0.2-0.4c0.1,0,0.7-0.9,1.2-1.9c0.5-1.1,1.1-2,1.1-2.1
		c0.3-0.3,1.1-2.1,1.1-2.4c0-0.2,0.1-0.4,0.3-0.4s0.4-0.3,0.5-0.7c0.1-0.4,0.3-0.7,0.4-0.7s0.3-0.3,0.3-0.6c0-0.3,0.1-0.6,0.2-0.6
		s0.7-0.9,1.3-2.1c0.6-1.1,1.3-2.5,1.6-2.9c0.3-0.5,0.5-1.1,0.6-1.4c0-0.3,0.1-0.5,0.3-0.5c0.2,0,0.5-0.6,0.9-1.3
		c0.3-0.7,0.7-1.3,0.9-1.4c0.2-0.1,0.3-0.4,0.3-0.7c0-0.3,0.1-0.6,0.3-0.6c0.1,0,0.3-0.3,0.4-0.7c0.1-0.4,0.3-0.7,0.5-0.7
		c0.2,0,0.3-0.2,0.3-0.5c0-0.3,0.1-0.7,0.3-0.8c0.3-0.3,0.8-1.3,2.7-4.8c0.6-1.1,1.3-2.6,1.7-3.3l0.7-1.3l0.1,52.4
		c0,28.8,0.2,52.5,0.3,52.7c0.4,0.4,12.8,0.5,13.4,0c0.8-0.6,1.1-129.1,0.3-129.5C312.7,103.1,303.8,102.8,300.3,103.1 M339,103.3
		c2.5,1.3,3.3,2.7,3.3,6.2c0,2.5,0,2.6,0.3,1.2c0.7-3.5-1.7-7.9-4.1-7.8C338.4,102.8,338.6,103,339,103.3 M210.7,105.4
		c0.5,1,1.3,2.4,1.7,3.2c0.4,0.8,0.8,1.5,0.9,1.6c0.1,0.1,0.4,0.7,0.7,1.3c0.3,0.6,0.8,1.6,1.2,2.1c0.3,0.5,1.2,2.2,2,3.6
		c0.8,1.4,1.7,3.1,2,3.7c0.4,0.6,1.1,2,1.7,3.1c1,1.9,1.7,3.1,2.9,5.2c0.6,1.1,1.4,2.5,3.6,6.7c0.6,1.2,1.2,2.3,1.4,2.4
		s0.7,1.3,1.4,2.5c1.1,2,1.9,3.6,3.4,6.3c0.3,0.5,1,1.9,1.7,3.1c1.6,2.9,2.8,5.2,3.5,6.3c0.3,0.5,0.8,1.4,1.2,2.1
		c0.8,1.5,2.4,4.5,3.3,6c1.1,2,2.2,3.9,3.1,5.6c3.9,7.3,3.5,6.5,4.8,8.3c2.5,3.5,4.2,3.1,6.8-1.7c0.5-0.8,1.2-2.1,1.6-2.8
		c0.4-0.7,1.3-2.4,2-3.7c0.7-1.3,1.4-2.6,1.5-2.7c0.1-0.2,0.6-1.1,1.1-2c0.5-0.9,1.2-2.1,1.5-2.6c0.3-0.5,1-1.8,1.5-2.8
		c0.6-1,1.5-2.7,2-3.7c0.6-1,1.2-2.3,1.5-2.8c1-1.8,2.3-4.1,3.1-5.6c0.5-0.9,1.1-2,1.4-2.6c0.3-0.5,1-1.8,1.5-2.7
		c0.5-0.9,1.2-2.1,1.5-2.6c0.3-0.5,1-1.8,1.5-2.8c0.6-1,1.5-2.7,2-3.7c0.6-1,1.3-2.3,1.6-2.9s1.1-2,1.8-3.2c0.7-1.2,1.7-3.1,2.4-4.3
		c0.6-1.2,1.4-2.6,1.7-3.1c0.8-1.5,2.1-3.9,3.5-6.4c0.7-1.3,1.6-2.9,2-3.7c0.4-0.8,1.4-2.6,2.2-3.9l1.4-2.5l7.4,0.1l7.4,0.1
		l0.1,64.4c0.1,51.3,0,64.4-0.3,64.6c-0.8,0.5-12.4,0.3-12.9-0.2c-0.4-0.4-0.5-4.1-0.4-52.8c0.1-35.5,0-52.4-0.2-52.6
		c-0.2-0.2-0.6,0.4-1.4,1.8c-0.6,1.1-1.5,2.8-2,3.6c-0.5,0.9-1.4,2.5-2,3.7c-0.6,1.2-1.3,2.4-1.5,2.8c-0.2,0.3-1.1,2-2,3.7
		c-0.9,1.7-1.9,3.6-2.3,4.1c-0.4,0.6-0.7,1.1-0.7,1.2c0,0.1-0.5,1-1.1,2.1c-0.6,1.1-1.6,2.9-2.2,4.1c-0.6,1.2-1.5,2.7-1.9,3.4
		c-0.4,0.7-1.3,2.3-1.9,3.6c-0.7,1.3-1.5,2.7-1.7,3.2c-0.5,0.9-1.1,2-3.6,6.6c-0.5,1-1.2,2.2-1.5,2.7c-1.5,2.7-2.4,4.3-3.4,6.2
		c-0.6,1.2-1.5,2.8-1.9,3.5c-0.4,0.8-1.2,2.3-1.8,3.3c-6.8,12.5-18.5,12.3-25.2-0.4c-1.2-2.2-2.4-4.5-3.1-5.7
		c-0.4-0.6-1.3-2.4-2.1-3.9s-2-3.7-2.7-4.9c-0.7-1.2-1.2-2.3-1.2-2.3s-0.5-0.9-1-1.9c-0.6-1-1.7-3.2-2.6-4.8c-0.9-1.6-1.9-3.4-2.2-4
		c-0.3-0.6-0.8-1.4-1.1-2c-0.3-0.5-0.6-1.2-0.7-1.4c-0.4-0.8-4.7-8.7-5.3-9.7c-0.3-0.5-0.9-1.6-1.3-2.4c-0.4-0.8-1.2-2.3-1.8-3.3
		c-0.6-1-1.4-2.5-1.8-3.3c-0.4-0.8-1.1-2-1.5-2.7c-1.7-3.3-3.7-6.8-3.9-7c-0.7-0.7-0.8,2.6-0.7,53.1c0.1,46.3,0,52.5-0.3,52.7
		c-0.6,0.4-11.9,0.4-12.6,0c-0.5-0.2-0.7-127.7-0.3-129c0,0,3.3-0.1,7.4-0.1h7.4L210.7,105.4 M331.4,104.7c-0.1,0.1-0.2,2.2-0.2,4.7
		v4.5h3.2c3.6,0,5.7-0.9,5.7-2.6c0-0.2-0.3,0-0.6,0.5c-0.9,1.5-1.8,1.8-5.1,1.8h-2.9v-4.4L331.4,104.7l2.4,0.1
		c3.3,0,4.7,0.4,5.6,1.7c0.4,0.6,0.7,0.9,0.7,0.8c0-0.6-1.3-1.9-2.2-2.3C336.8,104.5,331.8,104.3,331.4,104.7 M340.1,109.3
		c0,0.9,0.1,1.2,0.1,0.8c0.1-0.4,0.1-1.1,0-1.6C340.2,108.1,340.1,108.5,340.1,109.3 M55.9,111.6c0.4,0.1,0.9,0.1,1.3,0
		c0.4-0.1,0.1-0.1-0.6-0.1C55.8,111.4,55.5,111.5,55.9,111.6 M36.5,130.1c0.5,0.1,1.3,0.1,1.9,0c0.5-0.1,0.1-0.1-0.9-0.1
		S36,130.1,36.5,130.1 M41,130.1c0.7,0.1,1.8,0.1,2.4,0c0.7-0.1,0.1-0.1-1.2-0.1C40.9,130,40.4,130.1,41,130.1 M328.7,137.7
		c-0.5,0.5-0.5,21.1,0,21.8c0.3,0.4,0.7,0.5,1.5,0.4l1.1-0.1l0.1-4.6l0.1-4.6h2.6h2.6l0.5,0.9c0.3,0.5,0.7,1.5,1,2.1
		c0.3,0.7,0.6,1.2,0.7,1.2c0.2,0-0.1-0.8-1.2-3l-0.7-1.4h-2.9h-2.9l-0.1,4.6l-0.1,4.6l-0.7,0.1c-1.4,0.2-1.4,0-1.3-11.3l0.1-10.5
		l3.7-0.1c7.2-0.2,9.6,1.4,9.6,6.2c0,2.7-0.4,3.6-2.2,5.1l-1,0.8l1.5,3.3c2.8,5.9,2.9,6.1,2,6.4c-0.6,0.2-1.8-0.3-1.8-0.8
		c0-0.2-0.4-1.1-0.9-2.1c-1.1-2.3-1.1-1.6,0,0.9c1,2.2,1.2,2.4,2.4,2.4c1.8,0,1.6-0.7-2-7.8c-1-1.9-1.1-2.3-0.7-2.5
		c0.5-0.3,1.5-1.3,2.1-2c1-1.2,1-6.7,0.1-7.1c-0.2-0.1-0.3-0.2-0.3-0.4c0-0.4-1.8-2-2.3-2c-0.2,0-0.6-0.2-0.8-0.4
		C338.1,137.3,329.2,137.2,328.7,137.7 M331.3,140c-0.1,0.2-0.1,2.1-0.1,4.2l0.1,3.8l3,0.1c4.5,0.1,6-1,6-4.2l0-1.3l-0.2,1.6
		c-0.4,3-1.1,3.5-5.4,3.7l-3.2,0.1v-4v-4l2.9-0.1l2.9-0.1l-2.9-0.1C332.2,139.6,331.4,139.7,331.3,140 M337.9,140.3
		c0.3,0.2,0.7,0.4,0.9,0.4c0.2,0,0.4,0.2,0.4,0.4c0,0.6,0.8,1.6,0.8,1c0-0.6-1.6-2.2-2.2-2.2C337.4,139.9,337.5,140,337.9,140.3
		 M332.8,173c-2.3,1.3-3.2,2.6-4.3,5.8c-0.6,1.8-0.6,8.2,0,9.5c0.3,0.7,0.4,0.7,0.2,0.1c-0.8-3.3-0.3-9.3,1-12
		c2.6-5,9.9-5.5,13.2-0.9c0.6,0.8,1.1,1.4,1.1,1.2C344,173.4,336.5,170.9,332.8,173 M334.2,174.9c-4.9,2.6-5,15-0.1,17.6
		c2.2,1.2,5.5,0.4,6.8-1.5l0.6-0.9l-1,0.9c-4.6,4.5-9.7,0.8-9.7-7c0-6.3,1.7-9,6.1-9.3c1.4-0.1,1.4-0.1-0.3-0.1
		C335.7,174.5,334.7,174.6,334.2,174.9 M339,175.2c0.3,0.2,0.7,0.5,0.9,0.6c0.9,0.7,1,0.5,0.2-0.2c-0.5-0.5-1.1-0.9-1.3-0.9
		C338.6,174.7,338.7,174.9,339,175.2 M341.2,177.2c0.1,0.3,0.5,1,0.7,1.6c0.2,0.6,0.4,1,0.4,0.7c0-0.6-0.9-2.9-1.2-2.9
		C341,176.7,341,177,341.2,177.2 M344.8,180.9c0.2,2.5,0.2,3.2,0,5.7c-0.2,1.6-0.1,1.8,0.1,1.1c0.4-1.1,0.4-6.9,0-8
		C344.7,179,344.7,179.3,344.8,180.9 M91.8,182c0.1,2.6,0.6,6.6,1,7.7c0.3,1,0.3,0.4-0.3-3.9c-0.2-1.3-0.4-3.2-0.6-4.1l-0.2-1.7
		L91.8,182 M342.4,183.6c0,1.6,0,2.3,0.1,1.5c0.1-0.8,0.1-2.2,0-3C342.5,181.3,342.4,181.9,342.4,183.6 M341.8,188.6
		c-0.2,0.6-0.3,1.1-0.2,1.2c0.2,0.2,0.9-1.5,0.7-1.9C342.2,187.7,342,188,341.8,188.6 M344.3,188.9c-0.1,1.5-2.2,4.3-4.1,5.3
		c-0.7,0.4-0.8,0.5-0.3,0.5c1.4,0,5.1-4.6,4.6-5.8C344.4,188.7,344.4,188.7,344.3,188.9 M328.9,189.7c0,1.4,3.3,5,4.6,5
		c0.2,0,0-0.2-0.5-0.4c-1.3-0.7-2.7-2.1-3.4-3.7C329.2,189.8,328.9,189.4,328.9,189.7 M93.1,191.4c0,0.5,0.1,1.2,0.3,1.7
		c0.2,0.5,0.4,1.4,0.6,2.1c0.2,0.7,0.4,1.2,0.4,1.1c0.1-0.1,0-0.7-0.2-1.4C93.2,190.9,93.1,190.6,93.1,191.4 M334.4,195.1
		c0.4,0.3,3.9,0.3,4.4,0c0.2-0.1-0.8-0.2-2.2-0.2C335.2,194.9,334.2,195,334.4,195.1 M94.5,197.1c0,0.3,0.2,1.1,0.4,1.9
		c0.3,0.7,0.5,1.5,0.6,1.7s0.2,0.3,0.2,0.3c0.1-0.1-0.2-1.1-0.6-2.3C94.8,197.5,94.5,196.8,94.5,197.1 M95.9,201.6
		c0,0.2,0.2,0.8,0.4,1.3c0.2,0.5,0.6,1.3,0.8,1.8c0.8,1.7,0.5,0.5-0.4-1.6C96.3,202,95.9,201.3,95.9,201.6 M97.7,206.1
		c0.7,1.6,2.3,4.6,2.5,4.8c0.1,0.1-0.3-1-1-2.4c-0.7-1.4-1.4-2.6-1.4-2.6C97.7,205.9,97.6,205.9,97.7,206.1 M100.5,211.4
		c0,0.6,4.6,7,5,7c0.1,0-0.3-0.6-0.8-1.3c-0.6-0.7-1.7-2.3-2.6-3.6C101.2,212.2,100.5,211.3,100.5,211.4 M176,217.8
		c-0.5,0.2-0.9,0.5-1,0.6c-0.1,0.1-0.7,0.4-1.4,0.7c-0.7,0.3-1.3,0.6-1.4,0.7c-0.1,0.1-0.4,0.2-0.7,0.3c-0.3,0.1-1.3,0.4-2.1,0.8
		c-2,0.8-3.2,1.1-5.1,1.4c-0.8,0.1-1.9,0.4-2.3,0.5c-1.7,0.7-16,1-20.7,0.5l-1.7-0.2l1.9,0.4c8.5,1.8,24.6-0.2,32.4-4.1
		c3.5-1.7,3.4-1.7,4.2,0.1c0.4,0.8,1.4,2.9,2.2,4.6l1.5,3.1L181,228c-0.8,0.9-5.7,3.3-8.3,4.2c-1.9,0.6-2.7,0.9-5.3,1.5
		c-0.3,0.1-0.1,0.1,0.6,0c1.7-0.2,3.9-0.7,4.3-1c0.2-0.2,0.5-0.3,0.9-0.3c0.9,0,6.8-3,8-4.1l1.1-0.9l-0.7-1.4
		c-0.4-0.8-0.8-1.6-0.9-1.9c-0.1-0.2-0.3-0.6-0.4-0.9c-0.1-0.2-0.6-1.2-1-2.1C177.4,217.1,177.3,217.1,176,217.8 M106.4,219.5
		c0.5,0.5,1.5,1.6,2.4,2.4c0.8,0.8,1.7,1.6,1.9,1.8c0.6,0.5,4.7,3.6,4.9,3.6c0.1,0,0.6,0.3,1.1,0.7c1,0.8,1.6,0.9,1,0.3
		c-0.2-0.2-0.4-0.4-0.6-0.4c-0.8,0-5.9-3.9-8.9-6.8C105.6,218.5,105.1,218.2,106.4,219.5 M341.5,224.4c0,0.6,0.1,0.8,0.1,0.5
		c0.1-0.3,0.1-0.7,0-1C341.6,223.6,341.5,223.9,341.5,224.4 M118.2,228.8c0,0.2,2.4,1.3,2.5,1.2c0.1-0.1-2.1-1.3-2.4-1.3
		C118.3,228.7,118.2,228.8,118.2,228.8 M121.6,230.6c0.4,0.2,0.9,0.4,1.1,0.4c0.2,0,0-0.2-0.5-0.4C121,230,120.7,230,121.6,230.6
		 M125.3,232c0.5,0.2,1.2,0.4,1.4,0.4c0.3,0,0-0.2-0.7-0.4C124.6,231.4,124.1,231.4,125.3,232 M127.4,232.6c0.1,0.2,0.7,0.4,1.3,0.5
		c0.6,0.1,1.4,0.3,1.8,0.5c0.4,0.2,1,0.3,1.3,0.2c0.3-0.1-0.4-0.3-1.5-0.6c-1.1-0.3-2.3-0.6-2.5-0.7
		C127.4,232.4,127.3,232.4,127.4,232.6 M133.8,234.2c0.6,0.2,1.7,0.4,2.4,0.4l1.3,0l-1.3-0.2c-0.7-0.1-1.8-0.3-2.4-0.4l-1.1-0.2
		L133.8,234.2 M165.2,234c-0.1,0.1-1.1,0.3-2.3,0.4l-2.1,0.2l1.9,0c1.8,0,5-0.7,3.4-0.8C165.7,233.8,165.3,233.9,165.2,234
		 M138.2,235c0.4,0.1,1.4,0.2,2.1,0.2l1.4,0l-1.3-0.2C138.7,234.6,137.2,234.6,138.2,235 M156.9,235l-1.7,0.2l2.1,0
		c1.2,0,2.5-0.1,2.9-0.2C161.1,234.7,159.5,234.7,156.9,235 M146.8,235.5c0.4,0.1,1.1,0.1,1.4,0c0.4-0.1,0-0.1-0.8-0.1
		S146.4,235.4,146.8,235.5"/>
	<path id="path7" class="st7" d="M19,110.8c1.7,1.4,20.4,2.5,30.7,1.7c7.2-0.6,8.9-0.6,9.2-0.3c0.2,0.2,0.5,0.3,0.7,0.3
		c0.5,0,2.7,1.5,3.3,2.2c3.7,4.4,1.9,11.2-3.4,13.2c-2.7,1.1-25,1.9-30.5,1.1c-1.3-0.2-3.6-0.5-5.1-0.6c-5.5-0.6-6.6-0.7-6.9-0.9
		c-0.2-0.1-1.1-0.3-2.1-0.5c-4.4-0.7-4.4-0.6-4.5-1.5c-0.1-0.5,0-0.9,0.2-1c0.3-0.2,1.2-2,1.2-2.5c0-0.2,0.1-0.4,0.2-0.4
		c0.3,0,1.2-1.7,1.2-2.3c0-0.3,0.2-0.6,0.4-0.7c0.2-0.1,0.3-0.2,0.1-0.4c-0.2-0.3-1.4,0.9-1.4,1.4c0,0.2-0.2,0.4-0.4,0.5
		c-0.2,0.1-0.4,0.4-0.4,0.7s-0.1,0.6-0.3,0.6c-0.2,0-0.3,0.4-0.3,0.9c0,0.6-0.1,0.9-0.4,0.9c-0.3,0-0.4,0.3-0.4,0.7
		c0,0.4-0.2,0.7-0.4,0.7c-0.4,0-0.4,1.1,0,1.6c0,0,2,0.5,5.3,1.3c0.7,0.2,2.2,0.4,3.3,0.5c1.1,0.1,3.4,0.4,5.1,0.7
		c10.2,1.4,32.2,1.1,36.1-0.5c1.8-0.7,2.7-1.3,3.4-2.1c4.2-4.4,3-11.3-2.4-14c-1.7-0.9-0.4-0.8-13.9-0.2c-7.4,0.3-20.5-0.2-24-1
		C20.8,110.7,18.7,110.5,19,110.8 M6.3,131.4c0,0.4-0.1,0.8-0.3,0.9c-0.4,0.2-0.5,1.4,0,1.6c0.3,0.1,0.4-0.1,0.3-0.6
		c-0.2-1.1,1.1-1.7,2.6-1.2c0.6,0.2,2.2,0.7,3.6,1.2c1.4,0.4,3.1,0.9,3.7,1.1c0.6,0.2,2.2,0.6,3.4,0.9c1.3,0.3,2.5,0.6,2.7,0.6
		c0.2,0.1,1.1,0.3,1.9,0.4c0.8,0.1,2.5,0.4,3.9,0.7c8,1.5,22.6,2.1,28.6,1.2c3.8-0.6,6.7-0.5,8.2,0.1c8.4,3.8,5.7,16.2-3.6,16.3
		c-0.6,0-2.3,0.2-3.9,0.4c-6.5,1-23.6,0.3-31.7-1.3c-0.8-0.2-2.1-0.4-3-0.5c-2.2-0.4-4.3-0.8-5.4-1.1c-0.6-0.1-1.8-0.5-2.9-0.7
		c-3.2-0.8-4.1-1.1-5.3-1.4c-0.6-0.2-1.9-0.6-2.9-0.9c-0.9-0.3-1.8-0.6-2-0.7c-0.1-0.1-0.8-0.2-1.4-0.2c-0.7,0-0.9,0.1-0.4,0.2
		c0.4,0.1,1,0.2,1.3,0.4c1.4,0.6,3.2,1.2,3.7,1.2c0.3,0,0.7,0.1,0.8,0.3c0.2,0.2,1.2,0.5,3.8,1.1c0.6,0.1,1.4,0.4,1.8,0.6
		c0.4,0.2,1.2,0.3,1.6,0.3c0.5,0,0.9,0.1,1,0.3s0.5,0.3,0.9,0.3c0.4,0,1.5,0.2,2.5,0.4c4.6,1.1,6.4,1.4,11,1.9
		c1.3,0.1,3.3,0.4,4.3,0.6c3,0.5,21.8,0.4,23.8-0.1c0.9-0.2,2.3-0.4,3.1-0.4c0.7,0,1.6-0.1,1.9-0.3c0.3-0.1,0.9-0.5,1.5-0.7
		c3.7-1.8,5.9-6.6,4.7-9.9c-0.9-2.4-1.3-3.1-2.4-4.2c-2.5-2.5-5.6-2.9-12.8-1.8c-4.9,0.7-12.8,0.4-24.9-1c-1.2-0.1-2.3-0.3-2.5-0.4
		c-0.2-0.1-1.1-0.3-2.1-0.4c-1-0.1-2.7-0.5-3.8-0.7c-1.1-0.3-2.4-0.6-3-0.6c-0.5-0.1-1.1-0.3-1.3-0.4c-0.2-0.1-0.8-0.3-1.5-0.4
		s-1.3-0.3-1.4-0.4c-0.1-0.1-0.5-0.3-0.9-0.3c-0.4,0-1.1-0.2-1.5-0.4c-0.4-0.2-1.1-0.4-1.5-0.4c-0.4,0-0.8-0.1-0.9-0.3
		c-0.1-0.2-0.7-0.4-1.5-0.5c-0.8-0.1-1.5-0.3-1.6-0.5C6.4,130.8,6.3,131,6.3,131.4 M5.2,134.4c-0.5,0.2-0.5,1.5,0.1,1.5
		c0.3,0,0.4-0.3,0.4-0.9c0-0.5,0-0.8-0.1-0.8C5.6,134.2,5.4,134.3,5.2,134.4 M4.2,136.9c-0.3,0.7-0.2,1,0.3,1c0.3,0,0.4-0.3,0.4-0.7
		C4.9,136.4,4.4,136.2,4.2,136.9 M3.4,139.5c0,0.2,0.1,0.4,0.3,0.4c0.2,0,0.3-0.2,0.3-0.4c0-0.2-0.1-0.4-0.3-0.4
		C3.6,139,3.4,139.2,3.4,139.5 M1.1,151.6c0,0.3,2.8,1.7,3.4,1.7c0.2,0,0.3,0.1,0.3,0.3s0.1,0.3,0.3,0.3c0.2,0,1.1,0.4,2.1,0.8
		c3.7,1.7,5.1,2.3,5.4,2.3c0.2,0,0.5,0.1,0.6,0.2c0.2,0.2,0.9,0.5,3.9,1.5c1,0.3,2.1,0.7,2.4,0.9c0.6,0.2,2.6,0.8,5,1.5
		c0.7,0.2,1.7,0.5,2.1,0.6c0.5,0.2,1.4,0.4,2.1,0.5c0.7,0.1,2.2,0.4,3.4,0.7c1.2,0.2,3.1,0.6,4.2,0.7c1.1,0.1,2.2,0.3,2.3,0.4
		c1.1,0.7,18.5,1.3,20.5,0.7c2.1-0.6,6.9-0.5,8.2,0.1c7.3,3.5,5.8,14.3-2,15.6c-6.6,1.1-19.5,1.2-24.8,0.3c-0.8-0.1-2.6-0.4-4-0.6
		c-3.8-0.5-5.5-0.8-7.7-1.2c-1.1-0.2-2.4-0.5-2.9-0.6c-0.5-0.1-1.5-0.3-2.3-0.6c-0.8-0.2-2-0.5-2.7-0.7c-0.7-0.2-1.7-0.5-2.1-0.6
		c-0.5-0.2-1.2-0.4-1.6-0.4c-0.4-0.1-1-0.2-1.3-0.4c-0.3-0.1-1.3-0.5-2.1-0.7c-0.9-0.3-1.9-0.7-2.3-0.9c-0.4-0.2-1-0.4-1.2-0.4
		c-0.3,0-0.7-0.1-1-0.3c-0.3-0.1-1.1-0.5-1.8-0.7c-1.8-0.7-2.2-0.9-4.4-1.8c-1.1-0.5-2.1-0.9-2.3-0.9s-0.5-0.4-0.7-0.9L0.1,168
		l0,1.1c0,0.7,0.1,1.1,0.3,1.1c0.2,0,1.7,0.6,3.4,1.3c4.5,1.9,12.1,4.6,15.2,5.4c0.8,0.2,2.2,0.6,3.1,0.9c0.9,0.3,2.2,0.6,2.9,0.7
		c0.6,0.1,2,0.4,3.1,0.7c12.4,2.8,29.5,3.5,37.5,1.7c11.2-2.6,8-18.7-3.4-17c-6,0.9-7.7,1-13.3,0.6c-11.8-0.8-22.6-2.8-31-5.9
		c-4.1-1.5-9.2-3.6-11.9-4.9c-1.8-0.8-3.3-1.5-3.5-1.5c-0.2,0-0.3-0.1-0.3-0.3c0-0.1-0.3-0.3-0.6-0.4S1.1,151.5,1.1,151.6
		 M105,282.9c0.4,0.1,0.9,0.1,1.1,0c0.3-0.1,0-0.1-0.6-0.1C104.9,282.7,104.6,282.8,105,282.9"/>
</g>
</svg>
