<svg xmlns="http://www.w3.org/2000/svg" viewBox="0 0 283.46 283.46"><g id="레이어_2" data-name="레이어 2"><g id="Layer_1" data-name="Layer 1"><path d="M283.46,141.73A141.73,141.73,0,1,1,141.74,0,141.72,141.72,0,0,1,283.46,141.73Z" style="fill:#939598"/><path d="M261.42,141.73A119.69,119.69,0,1,1,141.73,22.05,119.69,119.69,0,0,1,261.42,141.73Z" style="fill:#d5d7d8"/><path d="M141.73,279.53c-76,0-137.79-61.82-137.79-137.8S65.76,3.94,141.73,3.94s137.8,61.81,137.8,137.79S217.72,279.53,141.73,279.53Zm0-247.25A109.45,109.45,0,1,0,251.19,141.73,109.57,109.57,0,0,0,141.73,32.28Z" style="fill:#fff"/><path d="M45.71,203.93,29,214.5l-1.33-2.1,16.7-10.57Z" style="fill:#221e1f"/><path d="M42.75,199.05l-17.24,9.72-1.24-2.19,17.24-9.73Z" style="fill:#221e1f"/><path d="M30,187.15a2.66,2.66,0,0,1,1.68-1.57,4.13,4.13,0,0,1,3.72.36,7.14,7.14,0,0,1,2.93,3.32c1,2.3,1.19,4.14.41,5.5a6.38,6.38,0,0,1-2.36,2.66l-1.06-2.31a3,3,0,0,0,1.34-1.9,4.42,4.42,0,0,0-.43-2.89,4.8,4.8,0,0,0-1.45-1.94A2.1,2.1,0,0,0,33,188a1.28,1.28,0,0,0-.89.8,4,4,0,0,0-.23,1.51,8.94,8.94,0,0,0,.36,2.61,15.25,15.25,0,0,1,.51,2.24,5.21,5.21,0,0,1-.31,2.54,2.89,2.89,0,0,1-1.8,1.69,4,4,0,0,1-3.29-.27,6.33,6.33,0,0,1-2.94-3.3,5.62,5.62,0,0,1-.4-4.67,4.36,4.36,0,0,1,2.12-2.49L27.19,191a2.46,2.46,0,0,0-1,1.17,3.39,3.39,0,0,0,.38,2.83,3.7,3.7,0,0,0,1.52,1.92,1.75,1.75,0,0,0,1.46.07,1.38,1.38,0,0,0,.91-1.13,7.45,7.45,0,0,0-.08-1.6,17.69,17.69,0,0,0-.52-2.3,7.36,7.36,0,0,1-.29-2.49A7.76,7.76,0,0,1,30,187.15Z" style="fill:#221e1f"/><path d="M31.61,172.63a2.62,2.62,0,0,1-.84.64,9.77,9.77,0,0,1-1,.44,9.48,9.48,0,0,1,2.29,1.62,7,7,0,0,1,1.76,2.7,7.19,7.19,0,0,1,.44,3.85,3.52,3.52,0,0,1-2.12,2.64,3.6,3.6,0,0,1-3.18.24,5.41,5.41,0,0,1-2.3-2,12.11,12.11,0,0,1-1.28-2.42,26.74,26.74,0,0,0-1.15-2.55c-.24-.41-.5-.83-.78-1.25a1.1,1.1,0,0,0-1.38-.33,2.64,2.64,0,0,0-1.45,1.35,3.91,3.91,0,0,0,.07,3,4.59,4.59,0,0,0,1.66,2.62,2,2,0,0,0,2.05.19l.78,2.45a3.61,3.61,0,0,1-3.92-.57,8.38,8.38,0,0,1-2.6-4,8.08,8.08,0,0,1-.17-4.61,3.88,3.88,0,0,1,2.69-2.92l7.54-2.4a4.52,4.52,0,0,0,1.48-.76c.35-.29.53-.46.56-.49Zm-7,2.74a4.6,4.6,0,0,1,.59.54,3.85,3.85,0,0,1,.52.72,18,18,0,0,1,1,2,9.47,9.47,0,0,0,1,1.88,5.57,5.57,0,0,0,1.5,1.55,1.79,1.79,0,0,0,1.8,0,1.72,1.72,0,0,0,1.1-1.54,5.33,5.33,0,0,0-.33-2.11,5.64,5.64,0,0,0-2.54-3.15,3.61,3.61,0,0,0-2.68-.5Z" style="fill:#221e1f"/><path d="M28.56,158.4,20,160a4,4,0,0,0-2.62,1.32,3.33,3.33,0,0,0-.41,2.65,4,4,0,0,0,1.72,2.69,4.06,4.06,0,0,0,3.12.63l8.07-1.47.46,2.5-14.12,2.57-.45-2.5,1.59-.29a11.24,11.24,0,0,1-2-2.05,5.76,5.76,0,0,1-1.1-3.21,4.2,4.2,0,0,1,1.31-3.61,6,6,0,0,1,2.89-1.56l9.63-1.75Z" style="fill:#221e1f"/><path d="M10,143.89l-2.62,0,0-2.56,2.62,0Zm17.39-.14-14.43.12,0-2.55,14.43-.11Z" style="fill:#221e1f"/><path d="M28.1,128.29l-8.63-.73a4,4,0,0,0-2.88.59,3.32,3.32,0,0,0-1.08,2.44,4,4,0,0,0,1,3.06,4.14,4.14,0,0,0,2.85,1.42l8.17.69-.22,2.53L13,137.08l.21-2.53,1.62.14a10.89,10.89,0,0,1-1.41-2.51,5.66,5.66,0,0,1-.22-3.38,4.17,4.17,0,0,1,2.2-3.15,6.07,6.07,0,0,1,3.2-.75l9.75.83Z" style="fill:#221e1f"/><path d="M29.48,119.86a2.49,2.49,0,0,1-.61,1.26,3.4,3.4,0,0,1-1,.77,2.75,2.75,0,0,1-1.11.3,8.24,8.24,0,0,1-1.66-.19L17,120.52l-.34,1.81-2-.37.31-1.82-4.46-.82.46-2.5,4.46.82.41-2.12,2,.38L17.48,118l7.73,1.43.91.15a1.16,1.16,0,0,0,.88-.31,1.52,1.52,0,0,0,.52-.75,5.39,5.39,0,0,0,.22-.82l2.06.36Z" style="fill:#221e1f"/><path d="M24.27,113.16a5,5,0,0,0,3.78-.38,4.3,4.3,0,0,0,2.17-2.67,3.93,3.93,0,0,0,0-2.79,3.51,3.51,0,0,0-1.12-1.48l.75-2.64a6.32,6.32,0,0,1,2.28,7.42A6.76,6.76,0,0,1,28.63,115a7.73,7.73,0,0,1-5.8.44,7.65,7.65,0,0,1-4.67-3.35,6.76,6.76,0,0,1-.61-5.59,7.25,7.25,0,0,1,3.27-4.32q2.46-1.51,6.65-.27Zm.62-9.22a4.78,4.78,0,0,0-3.44.37,4.2,4.2,0,0,0-2,2.73,4.49,4.49,0,0,0,.19,3.27,4.76,4.76,0,0,0,2.8,2.26Z" style="fill:#221e1f"/><path d="M25.87,90.63a10.11,10.11,0,0,0-.43,1.21A2.92,2.92,0,0,0,25.35,93a4.5,4.5,0,0,0,1,2.49,6.71,6.71,0,0,0,2.76,1.81l6.28,2.51-.95,2.36L21.13,96.8l.95-2.36,1.87.75.11-.13a5.27,5.27,0,0,1-.83-1.56A5.8,5.8,0,0,1,23,91.78a3.3,3.3,0,0,1,.21-1.41c.16-.46.25-.71.26-.72Z" style="fill:#221e1f"/><path d="M42.45,84.92l-7.66-4a3.93,3.93,0,0,0-2.88-.59A3.31,3.31,0,0,0,30,82.1a4,4,0,0,0-.32,3.19,4.08,4.08,0,0,0,2.07,2.42L39,91.54l-1.2,2.25L25.08,87.08l1.19-2.25,1.43.76a11,11,0,0,1-.32-2.85,5.8,5.8,0,0,1,1.13-3.21,4.21,4.21,0,0,1,3.26-2,6.08,6.08,0,0,1,3.24.58l8.65,4.58Z" style="fill:#221e1f"/><path d="M50.93,72.18a2.57,2.57,0,0,1-1-.29,9,9,0,0,1-1-.52,9.16,9.16,0,0,1,.09,2.8,7,7,0,0,1-1.1,3,7.28,7.28,0,0,1-2.81,2.67,3.53,3.53,0,0,1-3.39-.11,3.66,3.66,0,0,1-2.11-2.4,5.51,5.51,0,0,1,.26-3.06,11.42,11.42,0,0,1,1.17-2.48,23.43,23.43,0,0,0,1.34-2.46c.18-.43.37-.89.54-1.36s0-.91-.58-1.3a2.56,2.56,0,0,0-1.94-.35,3.9,3.9,0,0,0-2.39,1.87,4.68,4.68,0,0,0-1.1,2.9A2,2,0,0,0,38,72.88L36.55,75a3.62,3.62,0,0,1-1.91-3.48A8.41,8.41,0,0,1,36.32,67a8.11,8.11,0,0,1,3.58-2.91,3.9,3.9,0,0,1,4,.4l6.46,4.58a4.21,4.21,0,0,0,1.48.73l.73.15Zm-6.39-3.94a4.05,4.05,0,0,1-.08.79,3.66,3.66,0,0,1-.25.85,19,19,0,0,1-1,2,9.4,9.4,0,0,0-.92,1.9,5.59,5.59,0,0,0-.33,2.13A1.77,1.77,0,0,0,43,77.33a1.72,1.72,0,0,0,1.9,0,5.19,5.19,0,0,0,1.48-1.54,5.71,5.71,0,0,0,1-3.92,3.6,3.6,0,0,0-1.22-2.44Z" style="fill:#221e1f"/><path d="M56,66.1a2.47,2.47,0,0,1-1.17.79,3.21,3.21,0,0,1-1.24.16,2.62,2.62,0,0,1-1.11-.3,8.62,8.62,0,0,1-1.35-1l-6.23-5.36-1.2,1.4L42.1,60.44,43.29,59l-3.44-3,1.66-1.93,3.43,3,1.43-1.61,1.56,1.35-1.4,1.63,6,5.13.7.59a1.17,1.17,0,0,0,.92.18,1.49,1.49,0,0,0,.83-.39,4.82,4.82,0,0,0,.6-.59l1.61,1.35Z" style="fill:#221e1f"/><path d="M46,51.13l-1.9-1.82,1.79-1.85,1.89,1.82ZM58.56,63.19l-10.39-10,1.75-1.84,10.4,10Z" style="fill:#221e1f"/><path d="M62.53,42.22a7.94,7.94,0,0,1,5.08,2.88,8,8,0,0,1,2.16,5.45,7.58,7.58,0,0,1-8.08,7,8.06,8.06,0,0,1-5.09-2.9,8,8,0,0,1-2.15-5.43,7.65,7.65,0,0,1,8.08-7Zm4.78,8.55a6.23,6.23,0,0,0-1.7-3.93A6,6,0,0,0,62,44.64a4.5,4.5,0,0,0-5.1,4.42,6.08,6.08,0,0,0,1.69,3.88,6.25,6.25,0,0,0,3.63,2.25,4.41,4.41,0,0,0,5.1-4.42Z" style="fill:#221e1f"/><path d="M81.84,44.24,77.06,37a4,4,0,0,0-2.25-1.89,3.26,3.26,0,0,0-2.58.66,4,4,0,0,0-1.81,2.64,4.07,4.07,0,0,0,.65,3.12l4.52,6.83-2.12,1.41-7.91-12,2.12-1.4.9,1.36a10.84,10.84,0,0,1,1.08-2.67,5.69,5.69,0,0,1,2.52-2.27A4.25,4.25,0,0,1,76,32.6a6.12,6.12,0,0,1,2.57,2.06L84,42.82Z" style="fill:#221e1f"/><path d="M95.39,37.15a2.5,2.5,0,0,1-.75-.74c-.24-.33-.43-.64-.59-.91A9,9,0,0,1,92.78,38a7,7,0,0,1-2.41,2.13,7.17,7.17,0,0,1-3.75,1,3.5,3.5,0,0,1-2.92-1.71A3.62,3.62,0,0,1,83,36.27a5.32,5.32,0,0,1,1.69-2.56,10.9,10.9,0,0,1,2.21-1.61,21,21,0,0,0,2.35-1.52q.57-.43,1.14-.93a1.1,1.1,0,0,0,.11-1.42A2.58,2.58,0,0,0,89,27a3.94,3.94,0,0,0-3,.49,4.69,4.69,0,0,0-2.36,2,2,2,0,0,0,.12,2.06l-2.32,1.13a3.62,3.62,0,0,1,0-4,8.32,8.32,0,0,1,3.63-3.15,8.1,8.1,0,0,1,4.54-.82A3.87,3.87,0,0,1,92.87,27l3.46,7.12a4.11,4.11,0,0,0,1,1.35l.56.49Zm-3.71-6.53a5,5,0,0,1-.46.66,4.1,4.1,0,0,1-.63.62,19.77,19.77,0,0,1-1.88,1.27A10.36,10.36,0,0,0,87,34.39a5.38,5.38,0,0,0-1.31,1.72A1.76,1.76,0,0,0,86,37.87a1.7,1.7,0,0,0,1.69.87,5.1,5.1,0,0,0,2-.63,5.62,5.62,0,0,0,2.75-3,3.55,3.55,0,0,0,.11-2.72Z" style="fill:#221e1f"/><path d="M99.79,35.33l-7-18.5,2.35-.89,7,18.49Z" style="fill:#221e1f"/><path d="M125.46,23.81A7.07,7.07,0,0,1,124,27.66a6.49,6.49,0,0,1-4.18,2.4A6.81,6.81,0,0,1,114.17,29a8,8,0,0,1-3-5,8,8,0,0,1,.84-5.79,6.81,6.81,0,0,1,4.81-3.2,6.65,6.65,0,0,1,7.59,3.62l-2.76.55a4.28,4.28,0,0,0-1.46-1.58,3.69,3.69,0,0,0-2.93-.37,4,4,0,0,0-2.91,2.13,6.11,6.11,0,0,0-.4,4.09A6.17,6.17,0,0,0,115.89,27a3.93,3.93,0,0,0,3.51.87,3.91,3.91,0,0,0,3.29-3.51Z" style="fill:#221e1f"/><path d="M138.55,14.59A7.92,7.92,0,0,1,140.86,20a8,8,0,0,1-1.56,5.65,7.57,7.57,0,0,1-10.68.74A8.14,8.14,0,0,1,126.3,21a8,8,0,0,1,1.57-5.63,7.66,7.66,0,0,1,10.68-.73Zm-1.34,9.7a6.26,6.26,0,0,0,1-4.16,6.1,6.1,0,0,0-1.56-3.94,4.51,4.51,0,0,0-6.74.46,6.1,6.1,0,0,0-1,4.12,6.22,6.22,0,0,0,1.55,4,4.42,4.42,0,0,0,6.73-.46Z" style="fill:#221e1f"/><path d="M152.75,27.84l.54-8.65a4,4,0,0,0-.64-2.87,3.42,3.42,0,0,0-2.48-1,4,4,0,0,0-3,1,4.08,4.08,0,0,0-1.36,2.88l-.51,8.17-2.54-.16.9-14.31,2.54.16-.1,1.62a11.05,11.05,0,0,1,2.47-1.47,5.78,5.78,0,0,1,3.38-.3,4.25,4.25,0,0,1,3.2,2.14,6.07,6.07,0,0,1,.81,3.19L155.31,28Z" style="fill:#221e1f"/><path d="M164.5,29.47l-2.9-.56-2.79-14.82,2.47.47,2.21,12.35,6.61-10.67,2.42.46Z" style="fill:#221e1f"/><path d="M173.87,25.19a5,5,0,0,0,.25,3.79,4.33,4.33,0,0,0,2.6,2.25,4,4,0,0,0,2.8.07A3.44,3.44,0,0,0,181,30.22l2.61.84a6.63,6.63,0,0,1-2.74,2.08,6.53,6.53,0,0,1-4.74,0,6.82,6.82,0,0,1-4.28-3.62,7.7,7.7,0,0,1-.27-5.8,7.7,7.7,0,0,1,3.49-4.57,6.78,6.78,0,0,1,5.61-.44,7.25,7.25,0,0,1,4.22,3.4c1,1.67,1,3.89.07,6.65Zm9.18.89a4.73,4.73,0,0,0-.25-3.43,4.25,4.25,0,0,0-2.68-2.1,4.47,4.47,0,0,0-3.27.09,4.82,4.82,0,0,0-2.35,2.73Z" style="fill:#221e1f"/><path d="M193.57,39.76l3.67-7.85a4,4,0,0,0,.45-2.91,3.36,3.36,0,0,0-1.93-1.86,4,4,0,0,0-3.19-.16,4,4,0,0,0-2.32,2.18l-3.47,7.42-2.31-1.08,6.08-13,2.3,1.08-.69,1.47A11.56,11.56,0,0,1,195,24.6a5.77,5.77,0,0,1,3.25,1,4.2,4.2,0,0,1,2.19,3.15A5.94,5.94,0,0,1,200,32l-4.15,8.87Z" style="fill:#221e1f"/><path d="M201,44a2.46,2.46,0,0,1-1-1,3.48,3.48,0,0,1-.37-1.19,2.56,2.56,0,0,1,.1-1.14,7.61,7.61,0,0,1,.75-1.51L204.69,32l-1.59-.93,1.06-1.78,1.59.91,2.31-3.9,2.2,1.3L208,31.53l1.83,1.12-1,1.78-1.86-1.1-4,6.76c-.17.29-.33.56-.46.8a1.13,1.13,0,0,0,0,.94,1.49,1.49,0,0,0,.53.75,4.89,4.89,0,0,0,.69.48l-1,1.82Z" style="fill:#221e1f"/><path d="M204.34,46l8-12,2.12,1.42-8,12ZM214,31.54l1.47-2.18,2.13,1.43L216.14,33Z" style="fill:#221e1f"/><path d="M225.69,46.21a8,8,0,0,1-1.94,5.52,8.17,8.17,0,0,1-5,3.09,7.61,7.61,0,0,1-8.34-6.72,8.09,8.09,0,0,1,2-5.53,8,8,0,0,1,5-3.07,6.78,6.78,0,0,1,5.53,1.66A6.83,6.83,0,0,1,225.69,46.21Zm-7.58,6.22a6.21,6.21,0,0,0,3.56-2.37,6,6,0,0,0,1.54-4A4.5,4.5,0,0,0,218,41.87a6.12,6.12,0,0,0-3.53,2.35,6.22,6.22,0,0,0-1.56,4,4.42,4.42,0,0,0,5.25,4.24Z" style="fill:#221e1f"/><path d="M227.12,65.58l6.26-6A4,4,0,0,0,234.85,57a3.35,3.35,0,0,0-1.11-2.43,4,4,0,0,0-2.92-1.31,4.11,4.11,0,0,0-3,1.2l-5.92,5.66-1.75-1.84,10.37-9.91,1.75,1.84-1.17,1.12A11.09,11.09,0,0,1,234,52a5.79,5.79,0,0,1,2.69,2.08,4.19,4.19,0,0,1,.89,3.73,6.06,6.06,0,0,1-1.56,2.9l-7.08,6.76Z" style="fill:#221e1f"/><path d="M241.34,85.42l7.39-4.51a3.93,3.93,0,0,0,2-2.18,3.33,3.33,0,0,0-.57-2.61,4,4,0,0,0-2.57-1.9,4.09,4.09,0,0,0-3.14.54l-7,4.26-1.33-2.17L253,66.53l1.32,2.17-6.07,3.7a10.84,10.84,0,0,1,2.63,1.19,5.69,5.69,0,0,1,2.17,2.6,4.17,4.17,0,0,1,.08,3.84A5.93,5.93,0,0,1,251,82.52l-8.36,5.09Z" style="fill:#221e1f"/><path d="M243.91,90.23l13-6.34L258,86.18l-13,6.34Zm15.61-7.64,2.36-1.16L263,83.74l-2.36,1.16Z" style="fill:#221e1f"/><path d="M253,106.74q-3.27,1.23-5.26-.31a8.69,8.69,0,0,1-2.87-3.89,7.49,7.49,0,0,1-.36-5.12,4.81,4.81,0,0,1,2.41-2.94l.89,2.39a2.58,2.58,0,0,0-1.25,1.66,5.19,5.19,0,0,0,.36,3.27,4.45,4.45,0,0,0,2.06,2.63,3.81,3.81,0,0,0,3.07-.05l1.33-.5a8,8,0,0,1-2.3-1.57,6.17,6.17,0,0,1-1.46-2.24,6.82,6.82,0,0,1,.08-5.23,6.62,6.62,0,0,1,4-3.68,6.47,6.47,0,0,1,5.29.09,6.86,6.86,0,0,1,3.48,4,6.43,6.43,0,0,1,.42,2.66,7.46,7.46,0,0,1-.64,2.64l1.42-.53.89,2.39Zm1.11-4.36a4.61,4.61,0,0,0,3.77,0,4.26,4.26,0,0,0,2.79-2.44,5.07,5.07,0,0,0-.19-3.51,5,5,0,0,0-2.16-2.72,4.23,4.23,0,0,0-3.69,0,4.59,4.59,0,0,0-2.87,2.44,4.67,4.67,0,0,0,.06,3.52A4.79,4.79,0,0,0,254.13,102.38Z" style="fill:#221e1f"/><path d="M254,120l8.45-1.93a4,4,0,0,0,2.56-1.44,3.32,3.32,0,0,0,.29-2.66,4,4,0,0,0-1.84-2.62,4.1,4.1,0,0,0-3.15-.48l-8,1.83-.57-2.49,19.32-4.42.57,2.49-6.92,1.58a10.53,10.53,0,0,1,2.1,2,5.71,5.71,0,0,1,1.24,3.16,4.21,4.21,0,0,1-1.13,3.67,6.21,6.21,0,0,1-2.83,1.69l-9.54,2.18Z" style="fill:#221e1f"/><path d="M262.34,144.86a2.63,2.63,0,0,1-2.17.78,4.19,4.19,0,0,1-3.27-1.82,7.15,7.15,0,0,1-1.36-4.21c0-2.53.55-4.27,1.81-5.21a6.44,6.44,0,0,1,3.23-1.49l.05,2.54a3,3,0,0,0-2,1.2,4.48,4.48,0,0,0-.75,2.83,4.82,4.82,0,0,0,.55,2.35,2.08,2.08,0,0,0,1.48,1,1.26,1.26,0,0,0,1.14-.37,4,4,0,0,0,.81-1.29,8.78,8.78,0,0,0,.7-2.54,16,16,0,0,1,.43-2.26,5.36,5.36,0,0,1,1.3-2.21,3,3,0,0,1,2.33-.83,4,4,0,0,1,2.91,1.56,6.33,6.33,0,0,1,1.37,4.19,5.67,5.67,0,0,1-1.48,4.46,4.44,4.44,0,0,1-2.95,1.43l-.06-2.55a2.48,2.48,0,0,0,1.39-.68,3.4,3.4,0,0,0,.78-2.74,3.71,3.71,0,0,0-.63-2.38,1.72,1.72,0,0,0-1.3-.63,1.33,1.33,0,0,0-1.29.67,8,8,0,0,0-.57,1.49,19.92,19.92,0,0,0-.44,2.33,7.2,7.2,0,0,1-.72,2.39A7.46,7.46,0,0,1,262.34,144.86Z" style="fill:#221e1f"/><path d="M259.29,160.62a7.12,7.12,0,0,1-3.26-2.5,6.51,6.51,0,0,1-1.07-4.71,6.76,6.76,0,0,1,2.72-5.09,8.8,8.8,0,0,1,11,1.1,6.82,6.82,0,0,1,1.64,5.54,6.67,6.67,0,0,1-5.68,6.2l.29-2.81a4.19,4.19,0,0,0,1.92-.93,3.73,3.73,0,0,0,1.22-2.69,4,4,0,0,0-1.19-3.41,7.07,7.07,0,0,0-7.83-.78,4,4,0,0,0-1.86,3.1,3.91,3.91,0,0,0,2.39,4.17Z" style="fill:#221e1f"/><path d="M252.23,171.41l8.44,2a4,4,0,0,0,2.93-.16A3.33,3.33,0,0,0,265,171a4,4,0,0,0-.49-3.15,4.08,4.08,0,0,0-2.62-1.82l-8-1.87.57-2.48,19.31,4.52-.59,2.48L266.32,167a11.26,11.26,0,0,1,1,2.68,5.75,5.75,0,0,1-.28,3.38,4.2,4.2,0,0,1-2.63,2.8,6.13,6.13,0,0,1-3.28.27l-9.53-2.23Z" style="fill:#221e1f"/><path d="M258.75,191.5a8,8,0,0,1-5.83-.13,8.06,8.06,0,0,1-4.5-3.77,7.61,7.61,0,0,1,3.78-10,8.09,8.09,0,0,1,5.86.14,7.92,7.92,0,0,1,4.47,3.76,7.66,7.66,0,0,1-3.78,10Zm-8.26-5.26a6.23,6.23,0,0,0,3.36,2.65,6.08,6.08,0,0,0,4.23.22,4.49,4.49,0,0,0,2.39-6.32,6.12,6.12,0,0,0-3.33-2.61,6.26,6.26,0,0,0-4.27-.25,4.18,4.18,0,0,0-2.66,2.62A4.13,4.13,0,0,0,250.49,186.24Z" style="fill:#221e1f"/><path d="M251.29,206.28a8,8,0,0,1-5.78-.87,8.11,8.11,0,0,1-4-4.33,7.58,7.58,0,0,1,5-9.44,8,8,0,0,1,5.8.89,7.92,7.92,0,0,1,3.94,4.31,7.66,7.66,0,0,1-5,9.44ZM243.77,200a6.26,6.26,0,0,0,3,3.06,6.08,6.08,0,0,0,4.18.77,4.51,4.51,0,0,0,3.17-6,6.05,6.05,0,0,0-3-3,6.25,6.25,0,0,0-4.2-.8,4.42,4.42,0,0,0-3.18,5.95Z" style="fill:#221e1f"/><path d="M238.11,203.29l16.57,10.82-1.38,2.11-16.57-10.83Z" style="fill:#221e1f"/><path d="M45,234.37l3.32-3.46,7.55,7.26.76-.8-7.54-7.25,1.33-1.37,9.46,9.09-3.31,3.44L49,234l-.77.8,7.89,7.58-1.34,1.39Zm11-3.32a5.35,5.35,0,0,1-3.28-1.51,5.49,5.49,0,0,1-1.65-3.21,3.74,3.74,0,0,1,1.06-3.25,3.67,3.67,0,0,1,3.19-1.17,5.56,5.56,0,0,1,4.92,4.73,3.7,3.7,0,0,1-1,3.24A3.75,3.75,0,0,1,56.06,231.05Zm2-4.49a2.73,2.73,0,0,0-2.48-2.37,1.87,1.87,0,0,0-2.07,2.16,2.52,2.52,0,0,0,.78,1.65,2.57,2.57,0,0,0,1.68.72,1.89,1.89,0,0,0,1.59-.57A1.81,1.81,0,0,0,58,226.56Zm.63,9.19L65.16,229l1.72,1.65-6.51,6.78Z" style="fill:#221e1f"/><path d="M60.46,247.9l3.24-4.62,2,1.39-2,2.92,8.92,6.25-1.19,1.7Zm10.1-1.73a10,10,0,0,1-.73-1.32,8.92,8.92,0,0,1-.65-1.79,12.68,12.68,0,0,1-.26-1.25,9,9,0,0,1-.08-1.31,6.89,6.89,0,0,1-1.26.48,11.89,11.89,0,0,1-1.6.32,9.6,9.6,0,0,1-1.84.1,14.25,14.25,0,0,1-1.51-.12l-.41-2.34a14.55,14.55,0,0,0,2.16.15,9.33,9.33,0,0,0,2.32-.32,5.37,5.37,0,0,0,2.16-1,8.21,8.21,0,0,0,1.5-1.61l1-1.5,2.07,1.45-1.06,1.5a7.17,7.17,0,0,0-1,1.92,5.21,5.21,0,0,0-.18,2.16,9,9,0,0,0,.57,2.15,9.28,9.28,0,0,0,.89,1.68Zm6.2.63-3.25,4.64-2-1.37,7.49-10.69,2,1.37L78,245l2,1.43-1.24,1.76Z" style="fill:#221e1f"/><path d="M87.37,254.35,86.05,257l5.29,2.6L88.71,265l-2.14-1.05,1.7-3.46-10.19-5,.92-1.88,4.8,2.37,1.33-2.7L78.48,250l.92-1.86,11.31,5.57c.39-.45.81-1,1.3-1.63a21.05,21.05,0,0,0,1.32-1.91l-10.23-5,.91-1.86,12.7,6.24a13.08,13.08,0,0,1-.84,1.35c-.41.61-.77,1.11-1.07,1.51s-.78,1-1,1.37-.56.71-.84,1l2.68,1.32L94.68,258Z" style="fill:#221e1f"/><path d="M98.53,254.11l.66-2.09,7.83,2.45-.65,2.09-2.73-.85-.12.41a17.76,17.76,0,0,0-.64,2.91,6.78,6.78,0,0,0,.16,2.9,10,10,0,0,0,.67,1.83,11.26,11.26,0,0,0,.77,1.26l-2.07,1.11c-.2-.3-.43-.66-.66-1.09a10.11,10.11,0,0,1-.66-1.43,7,7,0,0,1-.33-1.17c-.07-.35-.13-.74-.19-1.16a5.86,5.86,0,0,1-.76.89c-.28.28-.67.61-1.16,1a15.13,15.13,0,0,1-1.32.91c-.41.23-.85.47-1.36.7l-1.49-1.89a12.56,12.56,0,0,0,4.18-3,9.72,9.72,0,0,0,1.54-2.22,16.1,16.1,0,0,0,.91-2.34l.13-.41Zm5.61,15.42,2.59-8.3-2.48-.77.66-2.12,2.49.78,1.76-5.64,2.21.69-5,16.05Zm3.42,1.93,5.38-17.23,2.21.69-5.38,17.23Z" style="fill:#221e1f"/><path d="M123.07,260.09a6,6,0,0,0,.29-.72l-6.29-.94.28-1.92,9.12,1.35a9.8,9.8,0,0,1-1.41,3.45,9.39,9.39,0,0,1-2.73,3,13.22,13.22,0,0,1-3.4,1.74,20.45,20.45,0,0,1-2.81.75L114.81,265a12.69,12.69,0,0,0,2.62-.63,15.68,15.68,0,0,0,2.83-1.25l.49-.32a5,5,0,0,0,.46-.34c-.45,0-.95,0-1.52-.07s-1-.1-1.42-.15l-2.17-.3.26-1.81,3.17.45,1.63.17c.6.06,1.11.09,1.51.11A5.46,5.46,0,0,0,123.07,260.09Zm-6.23,13,.83-5.59,2.35.35-.53,3.54,11,1.63-.31,2.05Zm11.26-3,.86-5.74-3.55-.53.31-2.11,3.56.53.74-5.06,2.36.36-1.92,12.9Z" style="fill:#221e1f"/><path d="M144.21,261.92l0-3.92,2.3,0,.1,12.59-2.29,0-.06-6.53-2.09,0,0,4.08-7.61.07-.08-9.7,2.38,0,0,2.87,2.85,0,0-2.87,2.38,0,0,3.46Zm-4.45,1.55-2.86,0,0,2.58,2.85,0Zm-2.57,11.92,0-5.29,2.37,0,0,3.22,11.37-.1v2.08Zm11-4.48-.12-13.26,2.3,0,.12,13.26Z" style="fill:#221e1f"/><path d="M163.9,266.26a8.8,8.8,0,0,1-1.45-.43,9.6,9.6,0,0,1-1.71-.82,10.45,10.45,0,0,1-1.07-.71,8.73,8.73,0,0,1-1-.89,8,8,0,0,1-.58,1.24,13.31,13.31,0,0,1-.91,1.34,10.9,10.9,0,0,1-1.24,1.36c-.44.4-.83.72-1.16,1l-1.94-1.38a13.85,13.85,0,0,0,1.64-1.41,8.85,8.85,0,0,0,1.45-1.85,5.79,5.79,0,0,0,.82-2.24,7.83,7.83,0,0,0-.07-2.21l-.31-1.9,2.49-.41.31,1.9a6.89,6.89,0,0,0,.67,2,5.06,5.06,0,0,0,1.38,1.68,9,9,0,0,0,1.92,1.13,9,9,0,0,0,1.8.58Zm-6,8.2L157,268.9l2.39-.4L160,272l11-1.82.34,2.05Zm9.91-6.29-.88-5.31-3.13.52-.35-2.06,3.14-.52-.26-1.58-3.14.52-.34-2.07,3.14-.52-.31-1.86,2.33-.38,2.13,12.87Z" style="fill:#221e1f"/><path d="M185.78,253.77c.2,1,.36,1.87.5,2.72q.33,2,.48,3.27c.1.86.16,1.31.16,1.37l-2.23.72c0-.12-.14-1.09-.4-2.9a32.72,32.72,0,0,0-.94-4.62l-10.82,3.55-.64-2,13.32-4.37A20.51,20.51,0,0,1,185.78,253.77Zm-11.37,16-.65-2,5.74-1.88-1.91-5.8,2.32-.76,1.9,5.8,9.11-3,.64,2Z" style="fill:#221e1f"/><path d="M191.57,254l-2.8-5.48,12.06-6.16.92,1.82-9.93,5.07,1,1.86,10.12-5.17.92,1.81Zm-.5,4-.92-1.81L206.22,248l.93,1.81Zm16.15-.07a14.4,14.4,0,0,1-9.59,4.9,3.06,3.06,0,0,1-2.87-1.49,3,3,0,0,1,.49-3.17,11.29,11.29,0,0,1,4.33-3.36,11.46,11.46,0,0,1,5.27-1.54,3.07,3.07,0,0,1,2.86,1.49A3,3,0,0,1,207.22,257.9Zm-3.62-2.49a9.56,9.56,0,0,0-3.15,1.08,9.93,9.93,0,0,0-2.74,1.91c-.59.64-.76,1.2-.52,1.67s.8.67,1.67.58a9.34,9.34,0,0,0,3.16-1.09,9.8,9.8,0,0,0,2.73-1.89c.58-.64.76-1.2.51-1.67S204.46,255.31,203.6,255.41Z" style="fill:#221e1f"/><path d="M205.58,244.3l-1.11-1.52,9.28-6.74,1.11,1.53Zm.58-3.81L205.05,239l4.88-3.54L211,237Zm10.47,2.88a7,7,0,0,1-2.54,2.92,7.11,7.11,0,0,1-3.49,1.46,2.54,2.54,0,0,1-2.46-.9,2.42,2.42,0,0,1-.07-2.56,8.92,8.92,0,0,1,6.05-4.41,2.45,2.45,0,0,1,2.36.93A2.52,2.52,0,0,1,216.63,243.37ZM213.36,242a4.81,4.81,0,0,0-1.72.86,4.89,4.89,0,0,0-1.36,1.39,1,1,0,0,0-.08,1.13,1,1,0,0,0,1.13.31,4.65,4.65,0,0,0,1.75-.85,4.38,4.38,0,0,0,1.33-1.4,1,1,0,0,0,0-1.15A.94.94,0,0,0,213.36,242Zm10.69,5.62-2.13-2.93-8.87,6.43-1.2-1.67,10.83-7.86,3.34,4.6Zm-4.51-10.36,2.63,3.61-1.93,1.4L213.49,233l1.93-1.4,2.87,4,2-1.45,1.24,1.71Z" style="fill:#221e1f"/><path d="M231.46,222c.62.78,1.18,1.51,1.69,2.22.79,1.08,1.43,2,1.89,2.66l.75,1.12-1.69,1.67-1.65-2.4a33.77,33.77,0,0,0-2.91-3.7l-8.26,8.23-1.46-1.47,10.12-10.09A19.79,19.79,0,0,1,231.46,222Zm-3.14,19.6-1.46-1.46,2.86-2.86-4.3-4.32,1.71-1.7,4.31,4.31,1.54-1.53-4.3-4.32,1.71-1.71,4.3,4.32,5-4.94,1.46,1.47Z" style="fill:#221e1f"/><polygon points="29.21 214.89 27.33 211.87 27.72 211.63 29.6 214.65 29.21 214.89" style="fill:#221e1f"/><rect x="44.6" y="201.2" width="0.46" height="3.56" transform="matrix(0.85, -0.53, 0.53, 0.85, -100.95, 54.79)" style="fill:#221e1f"/><path d="M183.15,211.5a80.29,80.29,0,0,1-36.37,10.83l0,7.93a88.5,88.5,0,0,0,70.61-41.09l-6.89-3.94A80.24,80.24,0,0,1,183.15,211.5Z" style="fill:#808284"/><path d="M74.84,185.7l-6.85,4a88.7,88.7,0,0,0,70.9,40.58l0-7.93A80.78,80.78,0,0,1,74.84,185.7Z" style="fill:#808284"/><path d="M223.26,141.3a81.4,81.4,0,0,1-8.81,37l6.9,3.95a88.67,88.67,0,0,0-.27-81.69l-6.86,4A80.23,80.23,0,0,1,223.26,141.3Z" style="fill:#808284"/><path d="M163.17,63.66a80.2,80.2,0,0,1,47.08,34.07l6.85-4A88,88,0,0,0,165.19,56a89.17,89.17,0,0,0-19-2.89l0,7.94A81.59,81.59,0,0,1,163.17,63.66Z" style="fill:#808284"/><path d="M101.93,72A80.41,80.41,0,0,1,138.3,61.06l0-7.93A89,89,0,0,0,67.62,94.24l6.89,4A80.17,80.17,0,0,1,101.93,72Z" style="fill:#808284"/><path d="M64.48,121.09a82.39,82.39,0,0,1,6.1-16l-6.89-3.94a89,89,0,0,0-6.87,17.94A88,88,0,0,0,64,182.84l6.85-4A80.26,80.26,0,0,1,64.48,121.09Z" style="fill:#808284"/><path d="M242,119.84l-7.39,2.43a94,94,0,0,1-34.71,93.84l4.58,6.25A101.62,101.62,0,0,0,242,119.84ZM48.73,142a94,94,0,0,1,1.86-19l-7.39-2.38A101.42,101.42,0,0,0,81.42,222.77L86,216.5A93.76,93.76,0,0,1,48.73,142ZM143,235.54a93.41,93.41,0,0,1-48.24-13.13l-4.54,6.31a101.41,101.41,0,0,0,105.52-.36l-4.6-6.28A93.36,93.36,0,0,1,143,235.54ZM231.8,112.05l7.33-2.42a101.9,101.9,0,0,0-91.55-69.5l0,7.72A93.94,93.94,0,0,1,231.8,112.05ZM137,47.88l0-7.71a101.84,101.84,0,0,0-91,70.14l7.33,2.35A94,94,0,0,1,137,47.88Z" style="fill:#6d6e71"/><path d="M209.67,112.48h0A73.54,73.54,0,0,0,116.4,73.07l-3.73-8.55a3.88,3.88,0,0,0-7.1,3.11l3.73,8.54a73.56,73.56,0,0,0,58.83,134.62l3.73,8.55a3.87,3.87,0,0,0,7.1-3.1l-3.74-8.55a73.53,73.53,0,0,0,34.45-95.21Zm-2.93-.14-32.49,14.2a94.62,94.62,0,0,0-19.47-28.08L185,85.26A70.51,70.51,0,0,1,206.74,112.34ZM180.11,163.4l-22.71,9.92L144,142.6,172.9,130A92.07,92.07,0,0,1,180.11,163.4Zm-8.26,40.45a4.13,4.13,0,0,0-1.16-.12l-12.25-28,21.7-9.48A92.29,92.29,0,0,1,171.85,203.85ZM116.76,78.1a92.23,92.23,0,0,1,33.4,19.53l-21.69,9.48L116.14,78.89A3.6,3.6,0,0,0,116.76,78.1Zm35.46,21.47a92.19,92.19,0,0,1,19.64,28l-28.92,12.64-13.43-30.73Zm-11.67,41.69-29,12.64a92.28,92.28,0,0,1-7.21-33.43l22.74-9.93Zm1,2.38L155,174.37l-22.73,9.93a92.07,92.07,0,0,1-19.64-28Zm26.57-67.78a71.78,71.78,0,0,1,14.37,7.63l-29.77,13a95,95,0,0,0-35.45-20.95h0A70.41,70.41,0,0,1,168.16,75.86Zm-55.43,4a3.52,3.52,0,0,0,1,.08l12.33,28.22-21.71,9.49A92.11,92.11,0,0,1,112.73,79.85ZM76.19,116a70.45,70.45,0,0,1,34.29-37.52,95,95,0,0,0-8.71,40.26L72,131.77A71.85,71.85,0,0,1,76.19,116Zm-4.53,18.74,30.17-13.2A95,95,0,0,0,109.22,155L76.75,169.14A70.45,70.45,0,0,1,71.66,134.78Zm6.12,36.75,32.48-14.2a95,95,0,0,0,19.46,28.09L99.54,198.61A70.51,70.51,0,0,1,77.78,171.53Zm89.37,36.82a70.38,70.38,0,0,1-50.78-.35A71.27,71.27,0,0,1,102,200.37l29.74-13a94.85,94.85,0,0,0,35.41,20.93S167.15,208.33,167.15,208.35Zm.43-2.64a92.11,92.11,0,0,1-33.24-19.47l21.72-9.49,12.24,28A3.8,3.8,0,0,0,167.58,205.71Zm40.75-37.89a70.39,70.39,0,0,1-34.24,37.5l0,0a94.79,94.79,0,0,0,8.69-40.18l29.76-13A71,71,0,0,1,208.33,167.82Zm4.55-18.73-30.21,13.2a94.77,94.77,0,0,0-7.39-33.37l32.51-14.2A70.55,70.55,0,0,1,212.88,149.09Z" style="fill:#58595b"/><path d="M177.37,124.17l-3.06-7-2.06.91-.42-1a3.74,3.74,0,0,0,.81-.52,2.79,2.79,0,0,0,.61-.71,1.58,1.58,0,0,0,.23-.75,1.86,1.86,0,0,0-.09-.85l.91-.39,4.26,9.74Z" style="fill:#221e1f"/><path d="M183,110.66a4.64,4.64,0,0,1,1.94,1.28,8.3,8.3,0,0,1,1.48,2.47,9.23,9.23,0,0,1,.77,2.9,4.41,4.41,0,0,1-.41,2.31,3.29,3.29,0,0,1-1.7,1.5,3.25,3.25,0,0,1-2.52.09,3.31,3.31,0,0,1-1.82-1.44l1.21-.52a2.2,2.2,0,0,0,1.06.82,2.09,2.09,0,0,0,1.66-.06,1.75,1.75,0,0,0,1.06-1,4.28,4.28,0,0,0-.07-2.56c-.14-.38-.28-.7-.4-1a5.12,5.12,0,0,1-.71,1.26,2.86,2.86,0,0,1-1.24.89,3.28,3.28,0,0,1-2.66-.11,3.81,3.81,0,0,1-1.84-1.95,3.48,3.48,0,0,1-.1-2.72,3.35,3.35,0,0,1,1.9-1.95A3.22,3.22,0,0,1,183,110.66Zm1.2,4.43a2.57,2.57,0,0,0-.16-1.85,2.48,2.48,0,0,0-1.24-1.34,2,2,0,0,0-1.68,0,2,2,0,0,0-1.16,1.24,2.47,2.47,0,0,0,.15,1.83,2.64,2.64,0,0,0,1.25,1.37,2,2,0,0,0,1.7,0A1.91,1.91,0,0,0,184.2,115.09Z" style="fill:#221e1f"/><path d="M190.54,107.36a4.67,4.67,0,0,1,2,1.28,8.52,8.52,0,0,1,1.47,2.47,9,9,0,0,1,.78,2.9,4.46,4.46,0,0,1-.42,2.3,3.26,3.26,0,0,1-1.68,1.51,3.3,3.3,0,0,1-2.54.09,3.38,3.38,0,0,1-1.82-1.43l1.22-.53a2.13,2.13,0,0,0,1.07.82,2,2,0,0,0,1.64-.06,1.73,1.73,0,0,0,1.06-1,3.76,3.76,0,0,0,.18-1.32,3.81,3.81,0,0,0-.25-1.25c-.14-.37-.27-.7-.39-1a5.17,5.17,0,0,1-.72,1.26,2.8,2.8,0,0,1-1.24.89,3.26,3.26,0,0,1-2.65-.11,3.81,3.81,0,0,1-1.85-2,3.45,3.45,0,0,1-.09-2.71,3.32,3.32,0,0,1,1.89-2A3.27,3.27,0,0,1,190.54,107.36Zm1.21,4.44a2.65,2.65,0,0,0-.16-1.86,2.52,2.52,0,0,0-1.24-1.34,2,2,0,0,0-1.69,0,2,2,0,0,0-1.15,1.23,2.51,2.51,0,0,0,.14,1.83,2.64,2.64,0,0,0,1.26,1.38,2.09,2.09,0,0,0,2.84-1.24Z" style="fill:#221e1f"/><path d="M201.71,111.34l.8,1.85-1.21.52-.8-1.84-4.49,2-.59-1.37L197,104l1.23-.56,3,6.94,1.46-.65.45,1Zm-3.84-5.48-1.14,6.45,3.33-1.46Z" style="fill:#221e1f"/><path d="M107.26,99.26a102.3,102.3,0,0,1-10.73,2.29c-1.42.22-2.83.4-4.25.57l-1.57.17a104.69,104.69,0,0,1-14.91.45h0a77.72,77.72,0,0,0-6.61,14.43,7.34,7.34,0,0,0,1.06.19q3.19.27,6.41.36,4.62.14,9.26-.09a120.13,120.13,0,0,0,13-1.33c1.4-.22,2.8-.48,4.19-.75,2.72-.53,5.42-1.15,8.08-1.86a7.12,7.12,0,0,0,1-.37,7.47,7.47,0,0,0-4.92-14.06Z" style="fill:#f26649"/><path d="M116.56,120.79a104.32,104.32,0,0,1-10.7,2.28c-.72.12-1.44.19-2.16.29a102.2,102.2,0,0,1-14.89,1H87.7A103.47,103.47,0,0,1,67.89,122l-.08,0-.08,0,0,0A76.11,76.11,0,0,0,66,130.34c-.33,2.12-.58,4.25-.73,6.41q2.34.48,4.68.87c1.06.18,2.12.33,3.19.48a117.94,117.94,0,0,0,14,1.16c1.68,0,3.38,0,5.07,0,1.18,0,2.36-.09,3.54-.15a118.18,118.18,0,0,0,12.4-1.29,119.1,119.1,0,0,0,12.23-2.6,6.84,6.84,0,0,0,1-.37,7.47,7.47,0,0,0-4.92-14.06Z" style="fill:#faa619"/><path d="M144.62,185.31a99.19,99.19,0,0,1-10.88,2.32,109.43,109.43,0,0,1-32.27-.07l-2.22-.34q-2.72-.45-5.17-1c-10.53-2.17-17.34-4.91-18.27-4.67h0c2.93,4.75,8.78,12,10.78,13.62,5.1,2,24.68,12.31,62,4.5a5.33,5.33,0,0,0,1-.36,7.47,7.47,0,0,0-4.94-14.05Z" style="fill:#662c91"/><path d="M75.8,102.71h0v0c1.38.06,2.75.08,4.13.09.33-.53.67-1,1-1.56A20.05,20.05,0,0,0,75.8,102.71Z" style="fill:#a72b31"/><path d="M67.89,122c1.13.24,2.25.44,3.38.64.17-.62.34-1.25.53-1.87A20.12,20.12,0,0,0,67.89,122Z" style="fill:#f15a28"/><path d="M65.18,140.41a6.91,6.91,0,0,1,1.16.26c.77.25,1.55.46,2.33.7,0-.69,0-1.37,0-2.06A19.09,19.09,0,0,0,65.18,140.41Z" style="fill:#004e2f"/><path d="M70.12,159.76a20.12,20.12,0,0,0-2.51.86c.36,0,1.54.59,3.82,1.24-.21-.76-.42-1.51-.61-2.27C70.59,159.65,70.35,159.69,70.12,159.76Z" style="fill:#323276"/><path d="M75.78,181.57h0c.46-.12,2.36.49,5.42,1.4-.58-.86-1.15-1.72-1.69-2.6A19.25,19.25,0,0,0,75.78,181.57Z" style="fill:#461c50"/><path d="M126.17,142.26a102.66,102.66,0,0,1-10.88,2.33,104.59,104.59,0,0,1-20.08,1.22c-1.75-.07-3.5-.16-5.24-.31-.66-.06-1.31-.15-2-.22a102.65,102.65,0,0,1-21.52-4.66,6.7,6.7,0,0,0-1.16-.26l-.09,0h0a77.16,77.16,0,0,0,1.33,15.84c2.12.6,4.25,1.15,6.4,1.63,3,.68,6,1.24,9.09,1.69q4.86.7,9.77,1l1.4.07a117.87,117.87,0,0,0,24.46-1.3,119.09,119.09,0,0,0,12.44-2.66,8.49,8.49,0,0,0,1-.36,7.47,7.47,0,0,0-4.94-14.06Z" style="fill:#008562"/><path d="M135.23,163.84c-3.49.94-41.11,6.69-67.53-3.24l-.06,0h0a67.48,67.48,0,0,0,3.86,12.13c.65,1.48,1.35,2.93,2.07,4.36l1.45.42.52.15,2.22.62c1,.27,2,.52,3,.76,1.31.32,2.63.61,4,.88,1.84.37,3.69.71,5.54,1s3.45.48,5.18.67c1.26.14,2.53.26,3.8.36a118,118,0,0,0,27.69-1.11,117,117,0,0,0,12.2-2.6,6.82,6.82,0,0,0,1.05-.36,7.47,7.47,0,0,0-4.92-14.06Z" style="fill:#006bb6"/></g></g></svg>